<?xml version="1.0" encoding="utf-8"?>
<!-- Generator: Adobe Illustrator 24.3.0, SVG Export Plug-In . SVG Version: 6.00 Build 0)  -->
<svg version="1.1" id="Layer_1" xmlns="http://www.w3.org/2000/svg" xmlns:xlink="http://www.w3.org/1999/xlink" x="0px" y="0px"
	 viewBox="0 0 600 1000" style="enable-background:new 0 0 600 1000;" xml:space="preserve">
<style type="text/css">
	.st0{fill:#1E5F80;}
	.st1{fill:#292623;}
	.st2{fill:#EA5E0B;}
	.st3{fill:#DDDDDD;}
	.st4{fill:#E3E2E1;}
</style>
<g>
	<g>
		<path class="st0" d="M255.01,59.64c-24.82-6.08-55.09-2.92-82.81,11.93c-14.09,7.55-25.99,17.37-35.45,28.35
			c-9.45-10.98-21.36-20.81-35.45-28.35c-27.72-14.85-57.99-18-82.81-11.93l0,0c8.7,24.03,28.48,46.77,56.2,61.62
			c13.53,7.25,27.6,11.82,41.34,13.91c-4.66,13.18-7.25,27.84-7.25,43.29c0,31.32,10.83,59.39,27.78,78.4h0
			c16.95-19.01,28.59-47.08,28.59-78.4c0-15.46-2.79-30.12-7.64-43.3c13.73-2.09,27.79-6.67,41.31-13.91
			C226.54,106.42,246.32,83.67,255.01,59.64L255.01,59.64z"/>
		<path class="st1" d="M136.56,260.56v-3.69l0,0l0,0V260.56c-1.05,0-2.05-0.45-2.75-1.23l0,0c-17.62-19.78-28.71-48.69-28.72-80.85
			l0,0c0.01-32.28,10.96-61.3,28.73-81.1l0,0c0.7-0.77,1.7-1.22,2.75-1.22l0,0h0c1.04,0,2.05,0.45,2.74,1.22l0,0
			c17.72,19.75,29.52,48.75,29.53,81.1l0,0c-0.01,32.24-11.94,61.13-29.53,80.85l0,0C138.62,260.11,137.62,260.56,136.56,260.56
			L136.56,260.56L136.56,260.56L136.56,260.56z M136.56,256.87l2.75-2.45L136.56,256.87L136.56,256.87z M113.31,178.48
			c-0.01,28.72,9.38,54.57,24.1,72.71l0,0c14.83-18.19,24.91-44.06,24.9-72.71l0,0c0.01-28.81-9.98-54.78-24.9-72.97l0,0
			C122.61,123.66,113.3,149.62,113.31,178.48L113.31,178.48z"/>
		<path class="st1" d="M72.95,124.51C44.49,109.26,24.09,85.91,15.02,60.9l0,0c-0.4-1.1-0.25-2.33,0.4-3.3l0,0v0
			c0.52-0.77,1.29-1.32,2.19-1.54l0,0c8.14-1.99,16.81-3.02,25.77-3.02l0,0c19.4,0,40.15,4.83,59.66,15.28l0,0
			c28.41,15.23,48.24,39.39,57.33,64.2l0,0c0.29,0.79,0.3,1.64,0.04,2.43l0,0l0,0c-0.4,1.21-1.4,2.12-2.64,2.42l0,0
			c-7.77,1.87-16,2.82-24.47,2.82l0,0C113.7,140.2,92.74,135.12,72.95,124.51L72.95,124.51z M76.43,118.01
			c18.75,10.04,38.54,14.81,56.88,14.81l0,0c6.42,0,12.65-0.58,18.6-1.72l0,0c-9.03-21.66-27.08-42.76-52.34-56.28l0,0
			c-18.42-9.87-38-14.41-56.18-14.41l0,0c-6.88,0-13.56,0.65-19.9,1.9l0,0C32.5,83.93,50.98,104.39,76.43,118.01L76.43,118.01z"/>
		<path class="st1" d="M115.72,137.37l0.86-3.59l0,0l0,0L115.72,137.37c-1.23-0.3-2.23-1.21-2.63-2.42l0,0l0,0
			c-0.26-0.79-0.25-1.65,0.04-2.43l0,0c9.09-24.81,28.92-48.97,57.33-64.2l0,0c19.51-10.45,40.26-15.28,59.66-15.28l0,0
			c8.96,0,17.63,1.03,25.77,3.02l0,0c0.9,0.22,1.68,0.77,2.19,1.54l0,0l0,0c0.65,0.97,0.8,2.2,0.4,3.3l0,0
			c-9.06,25-29.47,48.36-57.93,63.61l0,0c-19.8,10.6-40.75,15.68-60.36,15.68l0,0C131.72,140.2,123.5,139.25,115.72,137.37
			L115.72,137.37z M140.2,132.82c18.33,0,38.12-4.77,56.88-14.81l0,0c25.45-13.62,43.93-34.08,52.94-55.69l0,0
			c-6.34-1.25-13.02-1.9-19.9-1.9l0,0c-18.18,0-37.76,4.54-56.18,14.41l0,0c-25.26,13.52-43.31,34.62-52.34,56.28l0,0
			C127.55,132.24,133.78,132.82,140.2,132.82L140.2,132.82z"/>
		<g>
			<path class="st1" d="M136.75,136.45c-6.98-0.22-13.74-1.11-20.16-2.66l0,0c4.28-11.69,11.07-23.28,20.11-33.8
				c-0.04-0.05-0.09-0.1-0.13-0.15h0c-8.68,9.67-15.71,21.71-20.53,35.34C123.06,136.25,130.01,136.66,136.75,136.45z"/>
			<path class="st1" d="M156.92,133.79L156.92,133.79c-6.42,1.55-13.19,2.44-20.16,2.66c6.76,0.21,13.71-0.2,20.76-1.28
				c-0.75-2.04-1.57-4.04-2.42-6.01C155.74,130.7,156.35,132.24,156.92,133.79z"/>
			<path class="st1" d="M141.33,105.58c3.63,4.78,6.81,9.73,9.53,14.77C148.02,115.05,144.82,110.11,141.33,105.58z"/>
			<path class="st1" d="M141.33,105.58c-1.45-1.92-2.98-3.8-4.58-5.65c-0.02,0.02-0.04,0.04-0.06,0.07
				C138.29,101.77,139.84,103.64,141.33,105.58z"/>
			<path class="st1" d="M116.59,133.79L116.59,133.79c6.42,1.55,13.19,2.44,20.17,2.66c6.98-0.22,13.74-1.11,20.16-2.66l0,0
				c-0.56-1.54-1.18-3.08-1.83-4.62c-0.57-1.33-1.15-2.66-1.77-3.95c-0.06-0.14-0.13-0.27-0.19-0.41c-0.05-0.1-0.1-0.21-0.15-0.31
				c-0.32-0.67-0.66-1.34-1-2.01c-0.1-0.19-0.2-0.39-0.3-0.58c-0.27-0.52-0.54-1.04-0.82-1.56c-2.72-5.04-5.9-9.99-9.53-14.77
				c-1.49-1.94-3.04-3.8-4.64-5.59C127.65,110.51,120.86,122.1,116.59,133.79z"/>
			<path class="st1" d="M153.32,125.22c0.62,1.29,1.2,2.62,1.77,3.95C154.53,127.85,153.94,126.53,153.32,125.22z"/>
		</g>
	</g>
	<g>
		<g>
			<path class="st2" d="M89.03,89.63c0.19,7.39-5.64,13.54-13.03,13.73c-7.4,0.19-13.53-5.64-13.73-13.03
				c-0.19-7.39,5.64-13.54,13.03-13.73C82.69,76.41,88.83,82.24,89.03,89.63"/>
			<path class="st1" d="M58.72,90.44c0-0.15,0-0.3,0-0.47l0,0c0-9.15,7.29-16.68,16.48-16.92l0,0c0.15,0,0.3-0.01,0.47-0.01l0,0
				c9.15,0,16.66,7.29,16.91,16.48l0,0l-3.55,0.1l3.55-0.08c0,0.15,0,0.29,0,0.43l0,0c0,9.15-7.28,16.68-16.5,16.93l0,0
				c-0.15,0-0.29,0.01-0.44,0.01l0,0C66.49,106.92,58.97,99.62,58.72,90.44L58.72,90.44z M75.4,80.16
				c-5.35,0.14-9.58,4.51-9.58,9.82l0,0c0,0.08,0,0.16,0,0.27l0,0c0.14,5.34,4.51,9.58,9.83,9.58l0,0c0.09,0,0.18,0,0.26,0l0,0
				c5.34-0.14,9.58-4.52,9.57-9.83l0,0c0-0.09,0-0.18,0-0.27l0,0l0,0c-0.15-5.34-4.52-9.56-9.82-9.56l0,0
				C75.59,80.15,75.5,80.15,75.4,80.16L75.4,80.16z"/>
		</g>
		<g>
			<path class="st2" d="M211.23,89.63c0.19,7.39-5.64,13.54-13.03,13.73c-7.4,0.19-13.53-5.64-13.73-13.03
				c-0.19-7.39,5.64-13.54,13.03-13.73C204.89,76.41,211.04,82.24,211.23,89.63"/>
			<path class="st1" d="M180.93,90.44c0-0.15-0.01-0.3-0.01-0.47l0,0c0-9.15,7.29-16.68,16.48-16.92l0,0c0.15,0,0.3-0.01,0.46-0.01
				l0,0c9.15,0,16.66,7.29,16.92,16.48l0,0l-3.55,0.1l3.55-0.08c0,0.15,0.01,0.29,0.01,0.43l0,0c0,9.15-7.29,16.68-16.5,16.93l0,0
				c-0.15,0-0.29,0.01-0.44,0.01l0,0C188.69,106.92,181.17,99.62,180.93,90.44L180.93,90.44z M197.6,80.16
				c-5.35,0.14-9.58,4.51-9.58,9.82l0,0c0,0.08,0,0.16,0.01,0.27l0,0c0.14,5.34,4.51,9.58,9.82,9.58l0,0c0.09,0,0.18,0,0.26,0l0,0
				c5.34-0.14,9.57-4.52,9.57-9.83l0,0c0-0.09,0-0.17,0-0.26l0,0h0c-0.14-5.34-4.52-9.57-9.82-9.57l0,0
				C197.79,80.15,197.71,80.15,197.6,80.16L197.6,80.16z"/>
		</g>
	</g>
	<g>
		<path class="st2" d="M150.13,193.85c0.19,7.39-5.64,13.54-13.03,13.73c-7.4,0.19-13.53-5.64-13.73-13.03
			c-0.19-7.39,5.64-13.54,13.03-13.73C143.79,180.63,149.93,186.46,150.13,193.85"/>
		<path class="st1" d="M119.82,194.66c0-0.15-0.01-0.3-0.01-0.47l0,0c0-9.15,7.29-16.68,16.48-16.92l0,0c0.15,0,0.3-0.01,0.47-0.01
			l0,0c9.14,0,16.67,7.29,16.92,16.48l0,0l-3.55,0.09l3.55-0.08c0,0.15,0.01,0.29,0.01,0.43l0,0c0,9.15-7.28,16.68-16.5,16.93l0,0
			c-0.15,0-0.29,0-0.44,0l0,0C127.59,211.13,120.07,203.84,119.82,194.66L119.82,194.66z M136.5,184.37
			c-5.35,0.13-9.58,4.51-9.58,9.82l0,0c0,0.07,0,0.16,0.01,0.26l0,0c0.14,5.34,4.51,9.58,9.82,9.57l0,0c0.09,0,0.18,0,0.26,0l0,0
			c5.34-0.14,9.58-4.52,9.57-9.83l0,0c0-0.09,0-0.18,0-0.27l0,0h0c-0.15-5.33-4.53-9.56-9.82-9.56l0,0
			C136.69,184.37,136.61,184.37,136.5,184.37L136.5,184.37z"/>
	</g>
</g>
<g>
	<path class="st2" d="M23.55,279.76v-19.66h5.36v11.24c0.78-0.83,1.68-1.45,2.71-1.85c1.03-0.4,2.14-0.6,3.36-0.6
		c1.37,0,2.66,0.28,3.87,0.85c1.21,0.57,2.26,1.35,3.15,2.34c0.89,0.99,1.59,2.15,2.12,3.48c0.52,1.32,0.79,2.73,0.79,4.22
		c0,1.51-0.26,2.92-0.79,4.23c-0.52,1.31-1.26,2.46-2.21,3.44c-0.94,0.98-2.07,1.76-3.37,2.32c-1.3,0.56-2.73,0.85-4.29,0.85
		c-1.59,0-3.04-0.28-4.34-0.85c-1.31-0.57-2.43-1.34-3.37-2.32c-0.94-0.98-1.67-2.13-2.2-3.45
		C23.82,282.68,23.55,281.27,23.55,279.76 M28.92,279.8c0,0.8,0.14,1.56,0.42,2.27c0.28,0.71,0.67,1.33,1.15,1.86
		c0.48,0.52,1.05,0.94,1.7,1.25c0.65,0.31,1.34,0.46,2.06,0.46c0.72,0,1.41-0.15,2.06-0.44c0.65-0.3,1.22-0.7,1.7-1.23
		c0.48-0.52,0.86-1.14,1.15-1.86c0.28-0.71,0.42-1.48,0.42-2.31c0-0.86-0.14-1.66-0.42-2.38c-0.28-0.72-0.67-1.35-1.15-1.89
		c-0.48-0.54-1.05-0.95-1.7-1.25c-0.65-0.29-1.34-0.44-2.06-0.44c-0.72,0-1.41,0.15-2.06,0.46c-0.65,0.31-1.22,0.73-1.7,1.27
		c-0.48,0.54-0.86,1.17-1.15,1.9C29.06,278.2,28.92,278.98,28.92,279.8"/>
	<path class="st2" d="M47.33,279.75c0-1.51,0.28-2.94,0.83-4.27c0.55-1.33,1.31-2.49,2.29-3.47c0.97-0.98,2.1-1.76,3.39-2.34
		c1.29-0.58,2.67-0.87,4.16-0.87c1.23,0,2.42,0.19,3.55,0.58c1.13,0.39,2.15,0.95,3.06,1.7c0.91,0.74,1.67,1.65,2.31,2.73
		c0.63,1.08,1.06,2.32,1.3,3.71l-14.69,6.16c0.54,0.69,1.18,1.24,1.93,1.63c0.75,0.39,1.58,0.59,2.5,0.59c0.87,0,1.7-0.19,2.5-0.58
		c0.8-0.39,1.43-1,1.89-1.84h5.7c-0.62,2.13-1.79,3.85-3.53,5.15c-1.73,1.31-3.91,1.96-6.52,1.96c-1.49,0-2.87-0.28-4.16-0.85
		c-1.29-0.57-2.42-1.34-3.39-2.32c-0.97-0.99-1.73-2.13-2.29-3.45C47.6,282.68,47.33,281.27,47.33,279.75 M52.37,279.46l9.78-4.11
		c-0.49-0.59-1.08-1.05-1.77-1.37c-0.7-0.32-1.48-0.48-2.35-0.48c-0.77,0-1.5,0.15-2.18,0.44c-0.68,0.29-1.26,0.7-1.76,1.23
		c-0.5,0.52-0.9,1.15-1.21,1.87C52.57,277.76,52.4,278.57,52.37,279.46"/>
	<path class="st2" d="M70.79,290.11v-3.79c0-1.45,0.23-2.73,0.68-3.82c0.45-1.09,1.11-2.01,1.98-2.76c-0.87-0.75-1.53-1.68-1.98-2.8
		c-0.45-1.11-0.68-2.39-0.68-3.84v-3.78h5.32v4.07c0,1.19,0.33,2.15,0.99,2.89c0.66,0.73,1.5,1.1,2.52,1.1
		c1.05,0,1.91-0.37,2.56-1.1c0.66-0.74,0.99-1.7,0.99-2.89v-4.07h5.32v3.78c0,1.44-0.26,2.7-0.77,3.81c-0.51,1.1-1.21,2.05-2.1,2.84
		c0.89,0.77,1.59,1.72,2.1,2.83c0.51,1.11,0.77,2.36,0.77,3.75v3.79h-5.32v-4.08c0-1.18-0.33-2.14-0.99-2.87
		c-0.66-0.73-1.51-1.09-2.56-1.09c-1.03,0-1.87,0.36-2.52,1.09c-0.66,0.73-0.99,1.69-0.99,2.87v4.08H70.79z"/>
	<path class="st2" d="M92.87,281.35v-17.35h5.32v5.32h3.75v4.69h-3.75v7.34c0,1.46,0.33,2.47,0.99,3.05
		c0.58,0.52,1.43,0.79,2.54,0.79c0.16,0,0.32-0.01,0.47-0.02v4.91c-0.49,0.05-0.95,0.08-1.4,0.08c-0.97,0-1.85-0.12-2.64-0.36
		c-1.16-0.36-2.13-0.92-2.91-1.71c-0.78-0.78-1.37-1.74-1.78-2.88C93.07,284.07,92.87,282.78,92.87,281.35"/>
	<path class="st2" d="M105.52,281.4v-21.33h5.36v21.28c0,1.48,0.33,2.5,0.99,3.07c0.58,0.51,1.41,0.77,2.5,0.77
		c0.16,0,0.32-0.01,0.47-0.02v4.91c-0.48,0.05-0.95,0.08-1.4,0.08c-0.97,0-1.85-0.12-2.64-0.36c-1.15-0.35-2.12-0.92-2.9-1.68
		c-0.78-0.77-1.37-1.72-1.78-2.86C105.73,284.12,105.52,282.83,105.52,281.4"/>
	<path class="st2" d="M116.46,279.71c0-1.51,0.26-2.92,0.79-4.25c0.52-1.33,1.26-2.48,2.21-3.46c0.95-0.98,2.07-1.75,3.37-2.33
		c1.3-0.58,2.74-0.86,4.33-0.86c1.56,0,3,0.29,4.3,0.87c1.31,0.58,2.43,1.36,3.37,2.34c0.94,0.98,1.67,2.14,2.19,3.47
		c0.53,1.33,0.79,2.76,0.79,4.27v10.37h-5.05v-2.21c-0.77,0.87-1.71,1.54-2.79,1.99c-1.09,0.45-2.27,0.67-3.54,0.67
		c-1.36,0-2.65-0.28-3.86-0.85c-1.21-0.57-2.26-1.34-3.17-2.33c-0.91-0.99-1.62-2.14-2.15-3.44
		C116.73,282.63,116.46,281.22,116.46,279.71 M121.82,279.75c0,0.83,0.14,1.6,0.42,2.32c0.28,0.72,0.67,1.34,1.15,1.86
		c0.49,0.53,1.05,0.94,1.7,1.23c0.64,0.3,1.33,0.44,2.05,0.44c0.72,0,1.41-0.15,2.06-0.46c0.65-0.31,1.22-0.73,1.7-1.25
		c0.48-0.53,0.86-1.15,1.15-1.86c0.28-0.72,0.42-1.47,0.42-2.28c0-0.83-0.14-1.61-0.42-2.34c-0.28-0.73-0.67-1.36-1.15-1.9
		c-0.48-0.54-1.05-0.96-1.7-1.27c-0.65-0.31-1.34-0.46-2.06-0.46c-0.72,0-1.41,0.15-2.05,0.44c-0.64,0.3-1.21,0.71-1.7,1.25
		c-0.49,0.54-0.87,1.17-1.15,1.89C121.96,278.08,121.82,278.88,121.82,279.75"/>
	<path class="st2" d="M141.42,290.11v-12.02c0-1.31,0.22-2.54,0.66-3.68c0.44-1.14,1.07-2.12,1.89-2.96
		c0.82-0.83,1.8-1.48,2.95-1.95c1.14-0.47,2.43-0.7,3.86-0.7c1.46,0,2.75,0.23,3.89,0.68c1.13,0.45,2.1,1.09,2.89,1.91
		c0.79,0.82,1.4,1.8,1.82,2.93c0.42,1.13,0.63,2.39,0.63,3.77v12.02h-5.32v-12.14c0-0.3-0.04-0.68-0.12-1.12
		c-0.08-0.45-0.25-0.88-0.52-1.31c-0.27-0.43-0.66-0.79-1.17-1.08c-0.51-0.3-1.21-0.44-2.09-0.44c-1.18,0-2.15,0.36-2.91,1.08
		c-0.76,0.72-1.13,1.68-1.13,2.88v12.14H141.42z"/>
	<rect x="163.21" y="284.46" class="st2" width="5.66" height="5.66"/>
	<path class="st2" d="M171.08,279.74c0-1.51,0.27-2.93,0.8-4.26c0.54-1.33,1.28-2.49,2.22-3.47c0.94-0.98,2.07-1.76,3.38-2.33
		c1.31-0.58,2.75-0.87,4.32-0.87c2.54,0,4.69,0.66,6.45,1.97c1.76,1.31,2.95,3.16,3.57,5.54h-5.7c-0.38-0.71-0.95-1.34-1.71-1.88
		c-0.76-0.54-1.63-0.82-2.6-0.82c-0.72,0-1.41,0.17-2.05,0.5c-0.65,0.33-1.21,0.77-1.7,1.33c-0.49,0.56-0.87,1.2-1.15,1.95
		c-0.28,0.74-0.42,1.54-0.42,2.38c0,0.81,0.14,1.58,0.42,2.32c0.28,0.73,0.67,1.38,1.15,1.94c0.49,0.56,1.05,0.99,1.7,1.3
		c0.64,0.31,1.33,0.47,2.05,0.47c1,0,1.89-0.27,2.67-0.8c0.78-0.53,1.34-1.17,1.69-1.9h5.7c-0.62,2.36-1.81,4.21-3.59,5.53
		c-1.78,1.32-3.93,1.98-6.47,1.98c-1.56,0-3-0.28-4.32-0.85c-1.31-0.57-2.44-1.34-3.38-2.33c-0.94-0.99-1.68-2.14-2.22-3.45
		C171.35,282.66,171.08,281.25,171.08,279.74"/>
	<path class="st2" d="M194.12,279.68c0-1.56,0.28-2.99,0.83-4.32c0.55-1.33,1.3-2.47,2.24-3.45c0.95-0.97,2.05-1.73,3.31-2.28
		c1.26-0.55,2.62-0.82,4.08-0.82c1.46,0,2.82,0.27,4.08,0.82c1.26,0.55,2.37,1.31,3.33,2.28c0.95,0.97,1.71,2.12,2.26,3.45
		c0.55,1.33,0.83,2.77,0.83,4.32c0,1.57-0.28,3.02-0.83,4.34c-0.55,1.32-1.31,2.47-2.26,3.45c-0.95,0.98-2.07,1.75-3.34,2.3
		c-1.27,0.55-2.63,0.83-4.07,0.83c-1.46,0-2.82-0.28-4.08-0.83c-1.26-0.56-2.36-1.32-3.31-2.3c-0.95-0.98-1.69-2.13-2.24-3.45
		C194.4,282.7,194.12,281.25,194.12,279.68 M199.44,279.72c0,0.89,0.14,1.7,0.41,2.42c0.27,0.72,0.63,1.34,1.09,1.87
		c0.45,0.53,1,0.93,1.64,1.21c0.64,0.28,1.31,0.42,2.01,0.42c0.7,0,1.36-0.14,1.97-0.42c0.62-0.28,1.17-0.68,1.64-1.21
		c0.47-0.52,0.85-1.15,1.12-1.88c0.27-0.73,0.41-1.53,0.41-2.41c0-0.89-0.14-1.71-0.41-2.47c-0.27-0.75-0.64-1.4-1.12-1.93
		c-0.47-0.53-1.02-0.95-1.64-1.25c-0.62-0.3-1.28-0.45-1.97-0.45c-0.7,0-1.37,0.15-2.01,0.45c-0.64,0.3-1.18,0.72-1.64,1.25
		c-0.45,0.53-0.82,1.17-1.09,1.93C199.58,278,199.44,278.82,199.44,279.72"/>
	<path class="st2" d="M217.62,290.11v-12.02c0-1.31,0.22-2.54,0.66-3.68c0.44-1.14,1.06-2.12,1.87-2.96
		c0.81-0.83,1.79-1.48,2.95-1.95c1.16-0.47,2.45-0.7,3.88-0.7c1.43,0,2.7,0.26,3.81,0.79c1.11,0.53,2.04,1.24,2.8,2.15
		c0.78-0.92,1.73-1.64,2.86-2.16c1.13-0.52,2.39-0.78,3.77-0.78c1.46,0,2.75,0.23,3.89,0.68c1.14,0.45,2.1,1.09,2.9,1.91
		c0.79,0.82,1.4,1.8,1.82,2.93c0.42,1.13,0.63,2.39,0.63,3.77v12.02h-5.32v-12.14c0-0.3-0.04-0.68-0.12-1.12
		c-0.08-0.45-0.25-0.88-0.52-1.31c-0.27-0.43-0.66-0.79-1.18-1.08c-0.51-0.3-1.21-0.44-2.09-0.44c-1.18,0-2.16,0.36-2.91,1.08
		c-0.76,0.72-1.14,1.68-1.14,2.88v12.14h-5.32v-12.14c0-0.3-0.04-0.68-0.12-1.12c-0.08-0.45-0.25-0.88-0.5-1.31
		c-0.26-0.43-0.64-0.79-1.15-1.08c-0.51-0.3-1.21-0.44-2.09-0.44c-1.21,0-2.18,0.36-2.93,1.08c-0.74,0.72-1.12,1.68-1.12,2.88v12.14
		H217.62z"/>
</g>
<g>
	<g>
		<path class="st0" d="M425.33,463.63c-13.65-3.34-30.29-1.61-45.53,6.56c-7.75,4.15-14.29,9.55-19.49,15.59
			c-5.2-6.04-11.74-11.44-19.49-15.59c-15.24-8.16-31.89-9.9-45.53-6.56l0,0c4.78,13.21,15.66,25.71,30.9,33.88
			c7.44,3.98,15.17,6.5,22.73,7.65c-2.56,7.24-3.99,15.31-3.99,23.8c0,17.22,5.95,32.65,15.28,43.1h0
			c9.32-10.45,15.72-25.89,15.72-43.1c0-8.5-1.53-16.56-4.2-23.81c7.55-1.15,15.28-3.67,22.71-7.65
			C409.67,489.34,420.55,476.83,425.33,463.63L425.33,463.63z"/>
		<path class="st1" d="M360.21,574.09v-2.03l0,0l0,0V574.09c-0.58,0-1.13-0.25-1.51-0.68l0,0c-9.69-10.88-15.79-26.77-15.79-44.45
			l0,0c0-17.75,6.03-33.71,15.79-44.59l0,0c0.38-0.43,0.94-0.67,1.51-0.67l0,0h0c0.57,0,1.13,0.25,1.51,0.67l0,0
			c9.74,10.86,16.23,26.8,16.24,44.59l0,0c-0.01,17.72-6.57,33.61-16.23,44.45l0,0C361.33,573.84,360.79,574.09,360.21,574.09
			L360.21,574.09L360.21,574.09L360.21,574.09z M360.21,572.06l1.51-1.35L360.21,572.06L360.21,572.06z M346.96,528.96
			c0,15.79,5.16,30,13.25,39.98l0,0c8.15-10,13.69-24.22,13.69-39.98l0,0c0.01-15.84-5.49-30.12-13.69-40.12l0,0
			C352.07,498.82,346.95,513.09,346.96,528.96L346.96,528.96z"/>
		<path class="st1" d="M325.23,499.29c-15.64-8.39-26.86-21.23-31.85-34.98l0,0c-0.22-0.61-0.14-1.28,0.22-1.82l0,0l0,0
			c0.28-0.42,0.71-0.72,1.21-0.85l0,0c4.48-1.09,9.25-1.66,14.17-1.66l0,0c10.67,0,22.07,2.65,32.8,8.4l0,0
			c15.62,8.37,26.52,21.66,31.53,35.3l0,0c0.15,0.43,0.16,0.9,0.02,1.34l0,0l0,0c-0.22,0.67-0.77,1.17-1.45,1.33l0,0
			c-4.27,1.03-8.8,1.55-13.46,1.55l0,0C347.63,507.92,336.12,505.12,325.23,499.29L325.23,499.29z M327.14,495.72
			c10.31,5.52,21.19,8.14,31.27,8.14l0,0c3.53,0,6.96-0.32,10.23-0.95l0,0c-4.97-11.91-14.89-23.51-28.78-30.94l0,0
			c-10.13-5.43-20.89-7.92-30.89-7.92l0,0c-3.78,0-7.46,0.36-10.94,1.04l0,0C302.99,476.98,313.15,488.23,327.14,495.72
			L327.14,495.72z"/>
		<path class="st1" d="M348.75,506.36l0.47-1.97h0h0L348.75,506.36c-0.68-0.17-1.23-0.67-1.45-1.33l0,0h0
			c-0.14-0.44-0.14-0.91,0.02-1.34l0,0c5-13.64,15.9-26.93,31.52-35.3l0,0c10.73-5.75,22.13-8.4,32.8-8.4l0,0
			c4.92,0,9.69,0.57,14.17,1.66l0,0c0.5,0.12,0.92,0.42,1.21,0.85l0,0v0c0.36,0.54,0.44,1.21,0.22,1.82l0,0
			c-4.98,13.75-16.2,26.59-31.85,34.98l0,0c-10.89,5.83-22.41,8.62-33.19,8.62l0,0C357.54,507.92,353.02,507.39,348.75,506.36
			L348.75,506.36z M362.2,503.86c10.08,0,20.96-2.62,31.27-8.14l0,0c13.99-7.49,24.16-18.74,29.11-30.62l0,0
			c-3.49-0.69-7.16-1.04-10.94-1.04l0,0c-10,0-20.76,2.5-30.89,7.92l0,0c-13.89,7.43-23.81,19.03-28.78,30.94l0,0
			C355.25,503.54,358.68,503.86,362.2,503.86L362.2,503.86z"/>
		<g>
			<path class="st1" d="M360.31,505.85c-3.84-0.12-7.56-0.61-11.09-1.46l0,0c2.35-6.42,6.09-12.79,11.06-18.58
				c-0.02-0.02-0.05-0.05-0.07-0.08h0c-4.77,5.32-8.64,11.93-11.29,19.43C352.78,505.74,356.6,505.97,360.31,505.85z"/>
			<path class="st1" d="M371.4,504.39L371.4,504.39c-3.53,0.85-7.25,1.34-11.09,1.46c3.71,0.12,7.54-0.11,11.41-0.7
				c-0.41-1.12-0.86-2.22-1.33-3.3C370.75,502.69,371.09,503.54,371.4,504.39z"/>
			<path class="st1" d="M362.83,488.88c1.99,2.63,3.75,5.35,5.24,8.12C366.5,494.09,364.75,491.37,362.83,488.88z"/>
			<path class="st1" d="M362.83,488.88c-0.8-1.05-1.64-2.09-2.52-3.11c-0.01,0.01-0.02,0.03-0.03,0.04
				C361.16,486.79,362.01,487.81,362.83,488.88z"/>
			<path class="st1" d="M349.22,504.39L349.22,504.39c3.53,0.85,7.25,1.34,11.09,1.46c3.84-0.12,7.56-0.61,11.08-1.46l0,0
				c-0.31-0.85-0.65-1.7-1.01-2.54c-0.32-0.73-0.63-1.46-0.97-2.17c-0.03-0.08-0.07-0.15-0.1-0.23c-0.03-0.06-0.06-0.11-0.08-0.17
				c-0.18-0.37-0.36-0.74-0.55-1.11c-0.06-0.11-0.11-0.21-0.17-0.32c-0.15-0.29-0.3-0.57-0.45-0.86c-1.49-2.77-3.24-5.49-5.24-8.12
				c-0.82-1.07-1.67-2.09-2.55-3.07C355.31,491.59,351.57,497.96,349.22,504.39z"/>
			<path class="st1" d="M369.42,499.68c0.34,0.71,0.66,1.44,0.97,2.17C370.08,501.12,369.76,500.4,369.42,499.68z"/>
		</g>
	</g>
	<g>
		<g>
			<path class="st2" d="M334.07,480.11c0.1,4.06-3.1,7.45-7.16,7.55c-4.07,0.11-7.44-3.1-7.55-7.16c-0.11-4.06,3.1-7.44,7.17-7.55
				C330.58,472.85,333.96,476.05,334.07,480.11"/>
			<path class="st1" d="M317.41,480.56c0-0.08,0-0.17,0-0.26l0,0c0-5.03,4.01-9.17,9.06-9.3l0,0c0.08,0,0.17,0,0.26,0l0,0
				c5.03,0,9.16,4.01,9.3,9.06l0,0l-1.95,0.05l1.95-0.04c0,0.08,0,0.16,0,0.24l0,0c0,5.03-4,9.18-9.07,9.31l0,0
				c-0.08,0-0.16,0-0.24,0l0,0C321.68,489.62,317.54,485.61,317.41,480.56L317.41,480.56z M326.58,474.9
				c-2.94,0.08-5.27,2.48-5.27,5.4l0,0c0,0.04,0,0.09,0,0.14l0,0c0.08,2.94,2.48,5.27,5.4,5.27l0,0c0.05,0,0.1,0,0.14-0.01l0,0
				c2.94-0.07,5.26-2.48,5.26-5.4l0,0c0-0.05,0-0.09,0-0.14l0,0l0,0c-0.08-2.94-2.49-5.26-5.4-5.26l0,0
				C326.68,474.9,326.64,474.9,326.58,474.9L326.58,474.9z"/>
		</g>
		<g>
			<path class="st2" d="M401.26,480.11c0.1,4.06-3.1,7.45-7.16,7.55c-4.07,0.11-7.44-3.1-7.55-7.16c-0.11-4.06,3.1-7.44,7.17-7.55
				C397.77,472.85,401.15,476.05,401.26,480.11"/>
			<path class="st1" d="M384.6,480.56c0-0.08,0-0.17,0-0.26l0,0c0-5.03,4.01-9.17,9.06-9.3l0,0c0.08,0,0.16,0,0.26,0l0,0
				c5.03,0,9.16,4.01,9.3,9.06l0,0l-1.95,0.05l1.95-0.04c0,0.08,0,0.16,0,0.24l0,0c0,5.03-4.01,9.18-9.07,9.31l0,0
				c-0.08,0-0.16,0-0.24,0l0,0C388.87,489.62,384.73,485.61,384.6,480.56L384.6,480.56z M393.76,474.9
				c-2.94,0.08-5.27,2.48-5.27,5.4l0,0c0,0.04,0,0.09,0,0.14l0,0c0.08,2.94,2.48,5.27,5.4,5.27l0,0c0.05,0,0.1,0,0.14-0.01l0,0
				c2.94-0.07,5.27-2.48,5.26-5.4l0,0c0-0.05,0-0.09,0-0.14l0,0l0,0c-0.08-2.94-2.49-5.26-5.4-5.26l0,0
				C393.87,474.9,393.82,474.9,393.76,474.9L393.76,474.9z"/>
		</g>
	</g>
	<g>
		<path class="st2" d="M367.67,537.41c0.1,4.06-3.1,7.45-7.16,7.55c-4.07,0.11-7.44-3.1-7.55-7.16c-0.11-4.06,3.1-7.44,7.16-7.55
			C364.18,530.15,367.56,533.35,367.67,537.41"/>
		<path class="st1" d="M351,537.86c0-0.08,0-0.17,0-0.25l0,0c0-5.03,4.01-9.17,9.06-9.3l0,0c0.08,0,0.16-0.01,0.26-0.01l0,0
			c5.03,0,9.16,4.01,9.3,9.07l0,0l-1.95,0.05l1.95-0.04c0,0.08,0,0.16,0,0.24l0,0c0,5.03-4.01,9.17-9.07,9.31l0,0
			c-0.09,0-0.17,0-0.24,0l0,0C355.27,546.92,351.14,542.9,351,537.86L351,537.86z M360.17,532.2c-2.94,0.07-5.27,2.48-5.27,5.4l0,0
			c0,0.04,0,0.09,0,0.15l0,0c0.08,2.94,2.48,5.26,5.4,5.26l0,0c0.05,0,0.11,0,0.14,0l0,0c2.94-0.08,5.27-2.49,5.26-5.41l0,0
			c0-0.05,0-0.09,0-0.14l0,0l0,0c-0.08-2.94-2.49-5.26-5.4-5.26l0,0C360.28,532.2,360.23,532.2,360.17,532.2L360.17,532.2z"/>
	</g>
</g>
<g>
	<path class="st2" d="M64.9,525.07V485.4h10.82v22.67c1.57-1.69,3.39-2.93,5.46-3.73c2.07-0.8,4.33-1.2,6.77-1.2
		c2.75,0,5.36,0.57,7.81,1.71c2.45,1.14,4.57,2.72,6.36,4.72c1.79,2,3.21,4.34,4.27,7.01c1.06,2.67,1.59,5.51,1.59,8.51
		c0,3.04-0.53,5.89-1.59,8.53c-1.06,2.65-2.54,4.96-4.45,6.95c-1.91,1.98-4.17,3.55-6.79,4.68c-2.62,1.14-5.51,1.71-8.66,1.71
		c-3.2,0-6.12-0.57-8.76-1.71c-2.64-1.14-4.9-2.7-6.79-4.69c-1.89-1.98-3.37-4.3-4.43-6.95C65.43,530.96,64.9,528.11,64.9,525.07
		 M75.71,525.17c0,1.61,0.29,3.14,0.86,4.58c0.57,1.44,1.34,2.69,2.31,3.75c0.97,1.06,2.11,1.9,3.42,2.52
		c1.32,0.62,2.7,0.93,4.16,0.93c1.46,0,2.85-0.3,4.16-0.89c1.32-0.6,2.46-1.42,3.42-2.48c0.97-1.06,1.74-2.31,2.31-3.75
		c0.57-1.44,0.86-2.99,0.86-4.66c0-1.74-0.29-3.34-0.86-4.8c-0.57-1.45-1.34-2.72-2.31-3.81c-0.97-1.08-2.11-1.92-3.42-2.52
		c-1.31-0.59-2.7-0.89-4.16-0.89c-1.46,0-2.85,0.31-4.16,0.93c-1.31,0.62-2.45,1.47-3.42,2.56c-0.97,1.08-1.74,2.35-2.31,3.83
		C76,521.94,75.71,523.5,75.71,525.17"/>
	<path class="st2" d="M111.22,525.07c0-3.05,0.56-5.92,1.67-8.62c1.11-2.69,2.65-5.03,4.61-7.01c1.96-1.98,4.24-3.55,6.84-4.72
		c2.6-1.17,5.39-1.75,8.39-1.75c2.49,0,4.88,0.39,7.16,1.18c2.28,0.78,4.34,1.92,6.17,3.42c1.83,1.5,3.38,3.34,4.65,5.52
		c1.27,2.18,2.15,4.67,2.62,7.49l-29.63,12.42c1.09,1.4,2.39,2.5,3.9,3.3c1.51,0.79,3.19,1.19,5.05,1.19c1.75,0,3.43-0.39,5.05-1.17
		c1.62-0.78,2.89-2.02,3.82-3.72h11.49c-1.25,4.29-3.62,7.76-7.12,10.4c-3.5,2.64-7.89,3.95-13.16,3.95c-3,0-5.79-0.57-8.39-1.71
		c-2.6-1.14-4.88-2.7-6.84-4.69c-1.96-1.99-3.5-4.3-4.61-6.95C111.78,530.96,111.22,528.11,111.22,525.07 M121.41,524.47l19.73-8.3
		c-0.98-1.19-2.17-2.11-3.58-2.76c-1.41-0.65-2.98-0.97-4.73-0.97c-1.56,0-3.03,0.3-4.39,0.89c-1.36,0.59-2.55,1.42-3.56,2.48
		c-1.01,1.06-1.82,2.32-2.44,3.77C121.79,521.04,121.46,522.67,121.41,524.47"/>
	<path class="st2" d="M158.56,545.97v-7.66c0-2.93,0.46-5.5,1.37-7.71c0.91-2.21,2.25-4.06,4-5.57c-1.75-1.51-3.09-3.4-4-5.64
		c-0.92-2.25-1.37-4.83-1.37-7.76v-7.62h10.74v8.21c0,2.4,0.66,4.35,1.99,5.83c1.33,1.48,3.02,2.22,5.09,2.22
		c2.12,0,3.85-0.74,5.17-2.22c1.33-1.48,1.99-3.43,1.99-5.83v-8.21h10.74v7.62c0,2.9-0.51,5.46-1.54,7.68
		c-1.03,2.22-2.44,4.13-4.24,5.72c1.8,1.56,3.21,3.46,4.24,5.71c1.03,2.24,1.54,4.77,1.54,7.57v7.66h-10.74v-8.23
		c0-2.39-0.66-4.32-1.99-5.79c-1.32-1.47-3.05-2.21-5.17-2.21c-2.07,0-3.77,0.74-5.09,2.21c-1.33,1.47-1.99,3.4-1.99,5.79v8.23
		H158.56z"/>
	<path class="st2" d="M203.1,528.28v-35.01h10.74v10.74h7.56v9.46h-7.56v14.81c0,2.94,0.66,4.99,1.99,6.15
		c1.17,1.06,2.88,1.59,5.13,1.59c0.32,0,0.64-0.01,0.95-0.04v9.9c-0.98,0.11-1.92,0.16-2.82,0.16c-1.96,0-3.74-0.24-5.33-0.71
		c-2.34-0.72-4.29-1.86-5.87-3.45c-1.58-1.58-2.77-3.52-3.58-5.81C203.5,533.77,203.1,531.18,203.1,528.28"/>
	<path class="st2" d="M228.63,528.39v-43.03h10.81v42.93c0,2.99,0.66,5.05,1.99,6.19c1.17,1.03,2.85,1.55,5.05,1.55
		c0.32,0,0.64-0.01,0.95-0.04v9.9c-0.98,0.11-1.92,0.16-2.82,0.16c-1.96,0-3.74-0.24-5.33-0.71c-2.33-0.72-4.27-1.85-5.85-3.4
		c-1.57-1.55-2.77-3.47-3.58-5.76C229.04,533.87,228.63,531.28,228.63,528.39"/>
	<path class="st2" d="M250.7,524.97c0-3.04,0.53-5.9,1.59-8.58c1.06-2.68,2.54-5.01,4.45-6.97c1.91-1.97,4.17-3.53,6.79-4.7
		c2.62-1.16,5.54-1.74,8.74-1.74c3.15,0,6.05,0.58,8.68,1.75c2.64,1.17,4.9,2.74,6.8,4.71c1.89,1.97,3.37,4.31,4.43,7
		c1.06,2.69,1.59,5.56,1.59,8.61v20.92h-10.18v-4.46c-1.56,1.76-3.44,3.1-5.64,4.01c-2.2,0.91-4.58,1.36-7.15,1.36
		c-2.75,0-5.35-0.57-7.79-1.71c-2.43-1.14-4.57-2.71-6.4-4.71c-1.83-2-3.27-4.31-4.33-6.95C251.23,530.87,250.7,528.03,250.7,524.97
		 M261.51,525.05c0,1.67,0.29,3.23,0.86,4.67c0.57,1.44,1.35,2.7,2.33,3.76c0.98,1.06,2.12,1.89,3.43,2.49
		c1.3,0.6,2.68,0.89,4.14,0.89c1.46,0,2.85-0.31,4.17-0.93c1.32-0.62,2.46-1.46,3.42-2.53c0.97-1.06,1.74-2.31,2.31-3.76
		c0.57-1.44,0.86-2.98,0.86-4.59c0-1.67-0.29-3.24-0.86-4.71c-0.57-1.47-1.34-2.75-2.31-3.84c-0.97-1.09-2.11-1.94-3.42-2.56
		c-1.31-0.62-2.7-0.94-4.17-0.94c-1.46,0-2.84,0.3-4.14,0.89c-1.3,0.59-2.44,1.44-3.43,2.53c-0.98,1.09-1.76,2.36-2.33,3.82
		C261.8,521.69,261.51,523.3,261.51,525.05"/>
	<path class="st2" d="M298.75,545.97v-24.26c0-2.65,0.44-5.12,1.33-7.42c0.89-2.29,2.16-4.28,3.82-5.97
		c1.66-1.68,3.64-2.99,5.94-3.94c2.31-0.94,4.91-1.41,7.8-1.41c2.94,0,5.55,0.46,7.84,1.37c2.29,0.92,4.23,2.2,5.83,3.86
		c1.6,1.66,2.82,3.63,3.67,5.91c0.84,2.28,1.27,4.81,1.27,7.6v24.26h-10.74v-24.5c0-0.61-0.08-1.37-0.24-2.27
		c-0.16-0.9-0.51-1.79-1.05-2.65c-0.55-0.86-1.33-1.59-2.37-2.18c-1.03-0.6-2.44-0.9-4.21-0.9c-2.38,0-4.34,0.73-5.87,2.19
		c-1.52,1.46-2.29,3.39-2.29,5.81v24.5H298.75z"/>
</g>
<g>
	<path class="st2" d="M383.87,525.03c0-3.05,0.54-5.91,1.62-8.6c1.08-2.68,2.57-5.02,4.48-6.99c1.9-1.97,4.17-3.54,6.83-4.71
		c2.65-1.17,5.55-1.75,8.71-1.75c5.12,0,9.45,1.33,13.01,3.98c3.55,2.65,5.95,6.37,7.2,11.18h-11.49c-0.77-1.44-1.92-2.71-3.46-3.8
		c-1.54-1.1-3.29-1.65-5.25-1.65c-1.46,0-2.83,0.34-4.14,1c-1.3,0.67-2.44,1.56-3.42,2.69c-0.98,1.12-1.76,2.43-2.33,3.93
		c-0.57,1.5-0.86,3.1-0.86,4.81c0,1.63,0.28,3.19,0.86,4.67c0.57,1.48,1.34,2.79,2.33,3.91c0.98,1.13,2.12,2,3.42,2.63
		c1.3,0.63,2.68,0.94,4.14,0.94c2.01,0,3.81-0.54,5.39-1.61c1.58-1.08,2.71-2.36,3.4-3.84h11.49c-1.25,4.77-3.66,8.49-7.24,11.16
		c-3.58,2.66-7.93,4-13.04,4c-3.15,0-6.06-0.57-8.71-1.71c-2.65-1.14-4.93-2.71-6.83-4.7c-1.91-1.99-3.39-4.31-4.48-6.97
		C384.41,530.93,383.87,528.08,383.87,525.03"/>
	<path class="st2" d="M428.94,524.91c0-3.14,0.55-6.04,1.67-8.71c1.11-2.67,2.62-4.99,4.53-6.95c1.91-1.96,4.13-3.5,6.67-4.6
		c2.54-1.11,5.29-1.66,8.23-1.66c2.95,0,5.69,0.55,8.24,1.66c2.55,1.11,4.78,2.64,6.71,4.6c1.92,1.96,3.44,4.28,4.56,6.95
		c1.12,2.68,1.67,5.58,1.67,8.71c0,3.17-0.56,6.1-1.67,8.76c-1.11,2.67-2.63,4.99-4.56,6.97c-1.92,1.97-4.17,3.52-6.73,4.64
		c-2.56,1.12-5.3,1.68-8.22,1.68c-2.94,0-5.68-0.56-8.23-1.68c-2.54-1.12-4.77-2.67-6.67-4.64c-1.91-1.97-3.42-4.3-4.53-6.97
		C429.5,531,428.94,528.08,428.94,524.91 M439.68,524.99c0,1.8,0.27,3.43,0.82,4.89c0.54,1.46,1.28,2.71,2.19,3.77
		c0.92,1.06,2.02,1.88,3.31,2.44c1.29,0.57,2.64,0.86,4.04,0.86c1.41,0,2.74-0.28,3.98-0.86c1.25-0.57,2.35-1.38,3.31-2.44
		c0.96-1.06,1.71-2.32,2.25-3.79c0.54-1.47,0.82-3.09,0.82-4.87c0-1.8-0.27-3.46-0.82-4.98c-0.54-1.52-1.3-2.82-2.25-3.89
		c-0.95-1.07-2.06-1.91-3.31-2.52c-1.25-0.61-2.58-0.92-3.98-0.92c-1.41,0-2.76,0.31-4.04,0.92c-1.29,0.61-2.39,1.45-3.31,2.52
		c-0.92,1.07-1.65,2.37-2.19,3.89C439.95,521.53,439.68,523.19,439.68,524.99"/>
	<path class="st2" d="M475.27,545.97v-24.26c0-2.65,0.44-5.12,1.33-7.42c0.89-2.29,2.15-4.28,3.78-5.97
		c1.63-1.68,3.61-2.99,5.95-3.94c2.33-0.94,4.94-1.41,7.83-1.41s5.45,0.53,7.69,1.59c2.23,1.06,4.12,2.51,5.66,4.34
		c1.57-1.86,3.49-3.31,5.77-4.36c2.28-1.05,4.81-1.57,7.6-1.57c2.94,0,5.55,0.46,7.85,1.37c2.29,0.92,4.24,2.2,5.84,3.86
		c1.6,1.66,2.83,3.63,3.67,5.91c0.85,2.28,1.27,4.81,1.27,7.6v24.26h-10.74v-24.5c0-0.61-0.08-1.37-0.24-2.27
		c-0.16-0.9-0.51-1.79-1.06-2.65c-0.54-0.86-1.34-1.59-2.37-2.18c-1.04-0.6-2.45-0.9-4.23-0.9c-2.39,0-4.35,0.73-5.88,2.19
		c-1.53,1.46-2.29,3.39-2.29,5.81v24.5h-10.74v-24.5c0-0.61-0.08-1.37-0.24-2.27c-0.16-0.9-0.5-1.79-1.01-2.65
		c-0.52-0.86-1.29-1.59-2.33-2.18c-1.03-0.6-2.44-0.9-4.22-0.9c-2.44,0-4.41,0.73-5.9,2.19c-1.5,1.46-2.25,3.39-2.25,5.81v24.5
		H475.27z"/>
</g>
<path class="st0" d="M64.64,584.89v-17.11h4.3v17.06c0,1.19,0.26,2.01,0.79,2.46c0.46,0.41,1.13,0.62,2.01,0.62
	c0.13,0,0.25,0,0.38-0.02v3.94c-0.39,0.04-0.77,0.07-1.12,0.07c-0.78,0-1.49-0.1-2.12-0.29c-0.92-0.28-1.7-0.73-2.32-1.35
	c-0.63-0.62-1.1-1.38-1.43-2.29C64.8,587.06,64.64,586.04,64.64,584.89"/>
<path class="st0" d="M74.27,584.83v-9.63h4.27v9.74c0,0.24,0.03,0.54,0.1,0.89c0.06,0.35,0.2,0.7,0.42,1.04
	c0.22,0.34,0.53,0.63,0.94,0.87c0.41,0.24,0.98,0.35,1.69,0.35c0.95,0,1.72-0.29,2.32-0.88c0.6-0.59,0.9-1.35,0.9-2.28v-9.74h4.27
	v9.63c0,1.05-0.18,2.03-0.54,2.94c-0.36,0.91-0.86,1.7-1.52,2.36c-0.66,0.67-1.45,1.19-2.37,1.57c-0.93,0.38-1.95,0.57-3.06,0.57
	c-1.17,0-2.21-0.18-3.13-0.55c-0.92-0.37-1.69-0.88-2.33-1.54c-0.64-0.66-1.12-1.44-1.45-2.35
	C74.43,586.92,74.27,585.92,74.27,584.83"/>
<path class="st0" d="M91.96,583.53c0-1.21,0.21-2.34,0.63-3.41c0.42-1.07,1.01-1.99,1.77-2.77c0.76-0.78,1.66-1.41,2.7-1.87
	c1.04-0.46,2.2-0.69,3.48-0.69c1.25,0,2.4,0.23,3.45,0.69c1.05,0.46,1.95,1.09,2.7,1.87c0.75,0.79,1.34,1.71,1.76,2.78
	c0.42,1.07,0.63,2.21,0.63,3.43v7.48c0,1.38-0.2,2.63-0.6,3.74c-0.4,1.11-0.97,2.06-1.71,2.83c-0.74,0.77-1.65,1.37-2.72,1.79
	c-1.07,0.42-2.27,0.63-3.61,0.63c-1.01,0-1.97-0.14-2.88-0.42c-0.91-0.28-1.71-0.67-2.42-1.18c-0.71-0.5-1.32-1.12-1.82-1.83
	c-0.5-0.72-0.82-1.52-0.97-2.4H97c0.13,0.33,0.33,0.61,0.6,0.85c0.27,0.23,0.57,0.43,0.89,0.58c0.33,0.15,0.66,0.26,0.99,0.32
	c0.33,0.06,0.65,0.1,0.96,0.1c1.51,0,2.62-0.45,3.32-1.36c0.7-0.91,1.05-2.11,1.05-3.6v-0.74c-0.62,0.63-1.35,1.1-2.19,1.42
	c-0.83,0.32-1.73,0.48-2.68,0.48c-1.09,0-2.13-0.23-3.1-0.68c-0.97-0.46-1.82-1.08-2.54-1.87c-0.73-0.79-1.3-1.71-1.72-2.76
	C92.17,585.87,91.96,584.74,91.96,583.53 M96.26,583.56c0,0.66,0.11,1.28,0.34,1.86c0.23,0.57,0.54,1.07,0.93,1.49
	c0.39,0.42,0.85,0.75,1.36,0.99c0.52,0.24,1.06,0.36,1.65,0.36c0.58,0,1.13-0.13,1.65-0.37c0.52-0.25,0.98-0.58,1.36-1
	c0.39-0.42,0.69-0.92,0.92-1.49c0.23-0.58,0.34-1.18,0.34-1.83c0-0.67-0.11-1.29-0.34-1.88c-0.23-0.59-0.53-1.09-0.92-1.52
	c-0.38-0.43-0.84-0.77-1.36-1.02c-0.52-0.25-1.07-0.37-1.65-0.37c-0.58,0-1.13,0.12-1.65,0.35c-0.52,0.24-0.97,0.57-1.36,1
	c-0.39,0.43-0.7,0.94-0.93,1.52C96.37,582.23,96.26,582.86,96.26,583.56"/>
<path class="st0" d="M111.77,583.53c0-1.21,0.21-2.34,0.63-3.41c0.42-1.07,1.01-1.99,1.77-2.77c0.76-0.78,1.66-1.41,2.7-1.87
	c1.04-0.46,2.2-0.69,3.48-0.69c1.25,0,2.4,0.23,3.45,0.69c1.05,0.46,1.95,1.09,2.7,1.87c0.75,0.79,1.34,1.71,1.76,2.78
	c0.42,1.07,0.63,2.21,0.63,3.43v8.31h-4.05v-1.77c-0.62,0.7-1.37,1.23-2.24,1.59c-0.87,0.36-1.82,0.54-2.84,0.54
	c-1.09,0-2.13-0.23-3.09-0.68c-0.97-0.46-1.82-1.08-2.54-1.87c-0.73-0.79-1.3-1.71-1.72-2.76
	C111.98,585.87,111.77,584.74,111.77,583.53 M116.07,583.56c0,0.66,0.11,1.28,0.34,1.86c0.23,0.57,0.54,1.07,0.93,1.49
	c0.39,0.42,0.85,0.75,1.36,0.99c0.52,0.24,1.07,0.36,1.65,0.36c0.58,0,1.13-0.13,1.65-0.37c0.52-0.25,0.98-0.58,1.36-1
	c0.39-0.42,0.69-0.92,0.92-1.49c0.23-0.58,0.34-1.18,0.34-1.83c0-0.67-0.11-1.29-0.34-1.88c-0.23-0.59-0.53-1.09-0.92-1.52
	c-0.38-0.43-0.84-0.77-1.36-1.02c-0.52-0.25-1.07-0.37-1.65-0.37c-0.58,0-1.13,0.12-1.65,0.35c-0.52,0.24-0.97,0.57-1.36,1
	c-0.39,0.43-0.7,0.94-0.93,1.52C116.18,582.23,116.07,582.86,116.07,583.56"/>
<path class="st0" d="M132.52,591.87v-9.64c0-1.19,0.2-2.27,0.59-3.24c0.4-0.97,0.97-1.79,1.73-2.46c0.76-0.67,1.68-1.16,2.77-1.46
	c0.7-0.19,1.45-0.29,2.26-0.29c0.46,0,0.95,0.03,1.46,0.09v3.99c-0.37-0.06-0.72-0.1-1.06-0.1c-0.89,0-1.63,0.23-2.23,0.7
	c-0.83,0.63-1.25,1.55-1.25,2.74v9.67H132.52z"/>
<path class="st0" d="M148.67,583.57c0-1.19,0.21-2.32,0.63-3.38c0.42-1.06,0.99-1.99,1.72-2.79c0.73-0.8,1.57-1.42,2.53-1.88
	c0.96-0.46,1.99-0.68,3.08-0.68c1.99,0,3.62,0.65,4.89,1.96v-8.99h4.27v15.75c0,1.21-0.21,2.34-0.63,3.39
	c-0.42,1.05-1.01,1.98-1.76,2.76c-0.75,0.79-1.65,1.41-2.7,1.86c-1.05,0.45-2.2,0.68-3.45,0.68c-1.28,0-2.43-0.23-3.48-0.68
	c-1.04-0.45-1.94-1.07-2.7-1.86c-0.76-0.79-1.35-1.71-1.77-2.76C148.88,585.91,148.67,584.78,148.67,583.57 M152.97,583.61
	c0,0.66,0.11,1.28,0.34,1.85c0.23,0.57,0.54,1.07,0.93,1.49c0.39,0.42,0.84,0.75,1.36,0.98c0.52,0.24,1.07,0.36,1.65,0.36
	c0.58,0,1.13-0.12,1.65-0.37c0.52-0.25,0.98-0.58,1.36-1c0.39-0.42,0.69-0.92,0.92-1.49c0.23-0.58,0.34-1.18,0.34-1.82
	c0-0.66-0.11-1.29-0.34-1.87c-0.23-0.58-0.53-1.09-0.92-1.52c-0.38-0.43-0.84-0.77-1.36-1.02c-0.52-0.25-1.07-0.37-1.65-0.37
	c-0.58,0-1.13,0.12-1.65,0.36c-0.52,0.24-0.97,0.57-1.36,1c-0.39,0.43-0.7,0.93-0.93,1.51
	C153.08,582.28,152.97,582.91,152.97,583.61"/>
<path class="st0" d="M168.25,583.57c0-1.21,0.22-2.35,0.66-3.43c0.44-1.07,1.06-2,1.84-2.78c0.78-0.79,1.68-1.41,2.72-1.88
	c1.03-0.47,2.14-0.69,3.34-0.69c0.99,0,1.94,0.15,2.85,0.46c0.91,0.31,1.72,0.77,2.45,1.36c0.73,0.6,1.34,1.33,1.85,2.19
	c0.51,0.87,0.85,1.86,1.04,2.98l-11.78,4.94c0.43,0.56,0.95,1,1.55,1.31c0.6,0.32,1.27,0.48,2.01,0.48c0.69,0,1.36-0.16,2.01-0.47
	c0.64-0.31,1.15-0.8,1.52-1.48h4.57c-0.5,1.71-1.44,3.09-2.83,4.13c-1.39,1.05-3.14,1.57-5.23,1.57c-1.19,0-2.3-0.23-3.34-0.68
	c-1.03-0.45-1.94-1.07-2.72-1.86c-0.78-0.79-1.39-1.71-1.84-2.76C168.47,585.91,168.25,584.78,168.25,583.57 M172.3,583.33l7.84-3.3
	c-0.39-0.47-0.86-0.84-1.42-1.1c-0.56-0.26-1.19-0.39-1.88-0.39c-0.62,0-1.2,0.12-1.75,0.36c-0.54,0.24-1.01,0.57-1.42,0.99
	c-0.4,0.42-0.72,0.92-0.97,1.5C172.46,581.97,172.32,582.61,172.3,583.33"/>
<rect x="187.51" y="587.34" class="st0" width="4.54" height="4.54"/>
<rect x="193.75" y="587.34" class="st0" width="4.54" height="4.54"/>
<rect x="200" y="587.34" class="st0" width="4.54" height="4.54"/>
<path class="st2" d="M213.47,583.57V567.8h4.3v9.01c0.62-0.67,1.35-1.16,2.17-1.48c0.82-0.32,1.72-0.48,2.69-0.48
	c1.09,0,2.13,0.23,3.1,0.68c0.97,0.45,1.82,1.08,2.53,1.88c0.71,0.8,1.27,1.73,1.7,2.79c0.42,1.06,0.63,2.19,0.63,3.38
	c0,1.21-0.21,2.34-0.63,3.39c-0.42,1.05-1.01,1.97-1.77,2.76c-0.76,0.79-1.66,1.41-2.7,1.86c-1.04,0.45-2.19,0.68-3.44,0.68
	c-1.27,0-2.44-0.23-3.48-0.68c-1.05-0.45-1.95-1.08-2.7-1.86c-0.75-0.79-1.34-1.71-1.76-2.76
	C213.68,585.91,213.47,584.78,213.47,583.57 M217.77,583.61c0,0.64,0.11,1.25,0.34,1.82c0.23,0.57,0.53,1.07,0.92,1.49
	c0.39,0.42,0.84,0.75,1.36,1c0.52,0.25,1.07,0.37,1.65,0.37c0.58,0,1.13-0.12,1.65-0.36c0.52-0.24,0.98-0.56,1.36-0.98
	c0.38-0.42,0.69-0.92,0.92-1.49c0.23-0.57,0.34-1.19,0.34-1.85c0-0.69-0.11-1.33-0.34-1.91c-0.23-0.58-0.53-1.08-0.92-1.51
	c-0.38-0.43-0.84-0.76-1.36-1c-0.52-0.24-1.07-0.36-1.65-0.36c-0.58,0-1.13,0.12-1.65,0.37c-0.52,0.25-0.98,0.58-1.36,1.02
	c-0.39,0.43-0.69,0.94-0.92,1.52C217.88,582.32,217.77,582.95,217.77,583.61"/>
<path class="st0" d="M233.61,573.39v-2.4c0-0.6,0.21-1.11,0.63-1.52c0.42-0.41,0.93-0.62,1.53-0.62c0.58,0,1.08,0.2,1.5,0.62
	c0.42,0.41,0.63,0.91,0.63,1.52v2.4H233.61z M233.64,575.2h4.27v16.68h-4.27V575.2z"/>
<path class="st0" d="M241.67,584.84v-13.91h4.27v4.27h3v3.76h-3v5.88c0,1.17,0.26,1.98,0.79,2.45c0.46,0.42,1.14,0.63,2.04,0.63
	c0.13,0,0.25,0,0.38-0.02v3.94c-0.39,0.04-0.77,0.06-1.12,0.06c-0.78,0-1.48-0.09-2.12-0.29c-0.93-0.28-1.71-0.74-2.33-1.37
	c-0.63-0.63-1.1-1.4-1.42-2.31C241.83,587.02,241.67,586,241.67,584.84"/>
<path class="st0" d="M250.56,591.87v-4.16c0.2,0.01,0.4,0.01,0.6,0.01c0.34,0,0.65-0.02,0.95-0.06c0.46-0.08,0.84-0.26,1.14-0.57
	c0.21-0.19,0.41-0.53,0.58-1.03c0.18-0.5,0.27-1.34,0.27-2.54c0-0.54,0.02-1.1,0.06-1.69c0.04-0.58,0.14-1.17,0.29-1.74
	c0.15-0.58,0.37-1.13,0.65-1.67c0.28-0.54,0.67-1.03,1.16-1.49c1.19-1.17,2.77-1.76,4.74-1.76c0.29,0,0.58,0.01,0.89,0.03v4.17
	c-0.21-0.02-0.41-0.03-0.6-0.03c-0.9,0-1.59,0.25-2.09,0.75c-0.11,0.1-0.21,0.22-0.3,0.36c-0.1,0.14-0.18,0.34-0.26,0.6
	c-0.08,0.26-0.15,0.59-0.2,0.97c-0.05,0.38-0.08,0.88-0.08,1.49c0,0.56-0.02,1.13-0.06,1.73c-0.04,0.59-0.14,1.19-0.29,1.78
	c-0.15,0.59-0.37,1.16-0.65,1.71c-0.28,0.55-0.66,1.06-1.13,1.51c-0.69,0.67-1.52,1.12-2.47,1.38c-0.71,0.18-1.48,0.27-2.31,0.27
	C251.16,591.9,250.86,591.9,250.56,591.87"/>
<path class="st0" d="M262.34,591.87v-4.54h4.54v5.09c0,1.47-0.39,2.59-1.16,3.38c-0.78,0.79-1.78,1.25-3.01,1.38v-2.01
	c0.66-0.15,1.17-0.46,1.5-0.94c0.34-0.48,0.51-1.07,0.51-1.78v-0.58H262.34z"/>
<polygon class="st0" points="277.04,575.2 281.51,575.2 285.66,587.64 289.83,575.2 294.24,575.2 287.95,591.87 283.35,591.87 "/>
<path class="st2" d="M295.22,583.57c0-1.21,0.22-2.35,0.66-3.43c0.44-1.07,1.05-2,1.83-2.78c0.78-0.79,1.69-1.41,2.72-1.88
	c1.03-0.47,2.14-0.69,3.34-0.69c0.99,0,1.94,0.15,2.84,0.46c0.91,0.31,1.72,0.77,2.45,1.36c0.73,0.6,1.34,1.33,1.85,2.19
	c0.51,0.87,0.85,1.86,1.04,2.98l-11.78,4.94c0.43,0.56,0.95,1,1.55,1.31c0.6,0.32,1.27,0.48,2.01,0.48c0.7,0,1.37-0.16,2.01-0.47
	c0.64-0.31,1.15-0.8,1.52-1.48h4.57c-0.5,1.71-1.44,3.09-2.83,4.13c-1.39,1.05-3.14,1.57-5.23,1.57c-1.19,0-2.3-0.23-3.34-0.68
	c-1.03-0.45-1.94-1.07-2.72-1.86c-0.78-0.79-1.39-1.71-1.83-2.76C295.44,585.91,295.22,584.78,295.22,583.57 M299.27,583.33
	l7.84-3.3c-0.39-0.47-0.86-0.84-1.42-1.1c-0.56-0.26-1.19-0.39-1.88-0.39c-0.62,0-1.21,0.12-1.75,0.36
	c-0.54,0.24-1.02,0.57-1.42,0.99c-0.4,0.42-0.72,0.92-0.97,1.5C299.42,581.97,299.29,582.61,299.27,583.33"/>
<path class="st0" d="M313.95,583.55c0-1.21,0.22-2.35,0.65-3.42c0.43-1.07,1.02-1.99,1.78-2.78c0.76-0.79,1.66-1.41,2.71-1.87
	c1.05-0.46,2.21-0.69,3.46-0.69c2.03,0,3.76,0.52,5.17,1.58c1.41,1.05,2.36,2.53,2.86,4.44h-4.57c-0.31-0.57-0.76-1.07-1.38-1.51
	c-0.61-0.44-1.31-0.66-2.09-0.66c-0.58,0-1.13,0.13-1.65,0.4c-0.52,0.27-0.97,0.62-1.36,1.07c-0.39,0.44-0.7,0.96-0.92,1.56
	c-0.23,0.6-0.34,1.23-0.34,1.91c0,0.65,0.11,1.27,0.34,1.86c0.22,0.59,0.53,1.11,0.92,1.56c0.39,0.45,0.84,0.79,1.36,1.04
	c0.52,0.25,1.06,0.38,1.65,0.38c0.8,0,1.51-0.22,2.14-0.64c0.63-0.43,1.08-0.93,1.35-1.52h4.57c-0.5,1.9-1.45,3.38-2.88,4.44
	c-1.42,1.06-3.15,1.59-5.19,1.59c-1.25,0-2.41-0.23-3.46-0.68c-1.05-0.45-1.96-1.07-2.71-1.86c-0.75-0.79-1.35-1.72-1.78-2.77
	C314.17,585.9,313.95,584.76,313.95,583.55"/>
<path class="st0" d="M333.19,584.84v-13.91h4.27v4.27h3v3.76h-3v5.88c0,1.17,0.26,1.98,0.79,2.45c0.46,0.42,1.14,0.63,2.04,0.63
	c0.13,0,0.25,0,0.38-0.02v3.94c-0.39,0.04-0.77,0.06-1.12,0.06c-0.78,0-1.49-0.09-2.12-0.29c-0.93-0.28-1.71-0.74-2.33-1.37
	c-0.63-0.63-1.1-1.4-1.42-2.31C333.35,587.02,333.19,586,333.19,584.84"/>
<path class="st0" d="M342.72,583.5c0-1.25,0.22-2.4,0.66-3.47c0.44-1.06,1.04-1.98,1.8-2.76c0.76-0.78,1.64-1.39,2.65-1.83
	c1.01-0.44,2.1-0.66,3.27-0.66c1.17,0,2.26,0.22,3.27,0.66c1.01,0.44,1.9,1.05,2.67,1.83c0.76,0.78,1.37,1.7,1.81,2.76
	c0.44,1.06,0.67,2.22,0.67,3.47c0,1.26-0.22,2.42-0.67,3.48c-0.44,1.06-1.05,1.98-1.81,2.77c-0.76,0.79-1.66,1.4-2.68,1.85
	c-1.02,0.45-2.11,0.67-3.27,0.67c-1.17,0-2.26-0.22-3.27-0.67c-1.01-0.45-1.89-1.06-2.65-1.85c-0.76-0.78-1.36-1.71-1.8-2.77
	C342.95,585.93,342.72,584.76,342.72,583.5 M346.99,583.54c0,0.71,0.11,1.36,0.32,1.94c0.22,0.58,0.51,1.08,0.87,1.5
	c0.36,0.42,0.8,0.75,1.31,0.97c0.51,0.23,1.05,0.34,1.61,0.34c0.56,0,1.09-0.11,1.58-0.34c0.5-0.22,0.93-0.55,1.32-0.97
	c0.38-0.42,0.68-0.92,0.89-1.5c0.22-0.59,0.33-1.23,0.33-1.93c0-0.72-0.11-1.37-0.33-1.98c-0.22-0.6-0.52-1.12-0.89-1.54
	c-0.38-0.43-0.82-0.76-1.32-1c-0.5-0.24-1.02-0.36-1.58-0.36c-0.56,0-1.1,0.12-1.61,0.36c-0.51,0.24-0.95,0.58-1.31,1
	c-0.36,0.42-0.65,0.94-0.87,1.54C347.1,582.16,346.99,582.82,346.99,583.54"/>
<path class="st0" d="M362.31,591.87v-9.64c0-1.19,0.2-2.27,0.59-3.24c0.4-0.97,0.97-1.79,1.73-2.46c0.76-0.67,1.68-1.16,2.77-1.46
	c0.69-0.19,1.45-0.29,2.26-0.29c0.46,0,0.95,0.03,1.45,0.09v3.99c-0.37-0.06-0.72-0.1-1.06-0.1c-0.88,0-1.63,0.23-2.23,0.7
	c-0.83,0.63-1.25,1.55-1.25,2.74v9.67H362.31z"/>
<path class="st0" d="M372.59,583.57c0-1.21,0.22-2.35,0.66-3.43c0.44-1.07,1.05-2,1.83-2.78c0.78-0.79,1.69-1.41,2.72-1.88
	c1.03-0.47,2.14-0.69,3.33-0.69c0.99,0,1.94,0.15,2.85,0.46c0.9,0.31,1.72,0.77,2.45,1.36c0.73,0.6,1.34,1.33,1.85,2.19
	c0.5,0.87,0.85,1.86,1.04,2.98l-11.78,4.94c0.43,0.56,0.95,1,1.55,1.31c0.6,0.32,1.27,0.48,2.01,0.48c0.7,0,1.37-0.16,2.01-0.47
	c0.64-0.31,1.15-0.8,1.52-1.48h4.57c-0.5,1.71-1.44,3.09-2.83,4.13c-1.39,1.05-3.14,1.57-5.23,1.57c-1.19,0-2.3-0.23-3.33-0.68
	c-1.03-0.45-1.94-1.07-2.72-1.86c-0.78-0.79-1.39-1.71-1.83-2.76C372.81,585.91,372.59,584.78,372.59,583.57 M376.63,583.33
	l7.84-3.3c-0.39-0.47-0.87-0.84-1.42-1.1c-0.56-0.26-1.19-0.39-1.88-0.39c-0.62,0-1.21,0.12-1.75,0.36
	c-0.54,0.24-1.01,0.57-1.42,0.99c-0.4,0.42-0.72,0.92-0.97,1.5C376.79,581.97,376.65,582.61,376.63,583.33"/>
<path class="st0" d="M390.67,591.87v-4.16c0.2,0.01,0.4,0.01,0.6,0.01c0.34,0,0.65-0.02,0.95-0.06c0.46-0.08,0.84-0.26,1.14-0.57
	c0.21-0.19,0.4-0.53,0.59-1.03c0.18-0.5,0.27-1.34,0.27-2.54c0-0.54,0.02-1.1,0.06-1.69c0.04-0.58,0.14-1.17,0.29-1.74
	c0.15-0.58,0.37-1.13,0.65-1.67c0.28-0.54,0.67-1.03,1.16-1.49c1.19-1.17,2.77-1.76,4.74-1.76c0.28,0,0.58,0.01,0.88,0.03v4.17
	c-0.21-0.02-0.41-0.03-0.6-0.03c-0.9,0-1.59,0.25-2.09,0.75c-0.11,0.1-0.2,0.22-0.3,0.36c-0.1,0.14-0.18,0.34-0.26,0.6
	c-0.08,0.26-0.15,0.59-0.2,0.97c-0.05,0.38-0.08,0.88-0.08,1.49c0,0.56-0.02,1.13-0.06,1.73c-0.04,0.59-0.14,1.19-0.29,1.78
	c-0.15,0.59-0.37,1.16-0.65,1.71c-0.28,0.55-0.66,1.06-1.13,1.51c-0.7,0.67-1.52,1.12-2.47,1.38c-0.71,0.18-1.48,0.27-2.31,0.27
	C391.27,591.9,390.97,591.9,390.67,591.87"/>
<path class="st0" d="M411.37,584.95v-9.75h4.27v9.8c0,0.24,0.03,0.55,0.1,0.91c0.06,0.37,0.2,0.72,0.42,1.08
	c0.22,0.35,0.53,0.66,0.94,0.91c0.41,0.26,0.96,0.38,1.66,0.38c0.97,0,1.75-0.31,2.34-0.93c0.59-0.62,0.88-1.4,0.88-2.36v-9.8h4.27
	v17.36c0,1.12-0.18,2.13-0.54,3.06c-0.36,0.92-0.86,1.71-1.5,2.37c-0.65,0.66-1.42,1.17-2.33,1.52c-0.91,0.35-1.91,0.53-3.03,0.53
	c-0.91,0-1.77-0.14-2.59-0.42c-0.82-0.28-1.55-0.67-2.19-1.19c-0.64-0.52-1.17-1.13-1.6-1.85c-0.43-0.72-0.72-1.51-0.87-2.37h4.44
	c0.12,0.62,0.44,1.08,0.95,1.39c0.51,0.3,1.13,0.46,1.87,0.46c0.58,0,1.07-0.09,1.47-0.28c0.4-0.18,0.72-0.43,0.97-0.74
	c0.25-0.31,0.42-0.65,0.53-1.03c0.11-0.38,0.16-0.76,0.16-1.15v-1.92c-0.5,0.42-1.07,0.75-1.71,0.99c-0.65,0.23-1.35,0.35-2.09,0.35
	c-1.01,0-1.94-0.18-2.78-0.54c-0.84-0.36-1.56-0.86-2.16-1.49c-0.6-0.64-1.06-1.41-1.38-2.3
	C411.53,587.04,411.37,586.05,411.37,584.95"/>
<path class="st0" d="M436.57,599.29v-15.79c0-1.19,0.21-2.31,0.63-3.37c0.42-1.06,1.01-1.99,1.76-2.78c0.75-0.8,1.65-1.42,2.7-1.87
	c1.05-0.45,2.21-0.68,3.48-0.68c1.25,0,2.4,0.22,3.44,0.67c1.04,0.45,1.94,1.07,2.7,1.87c0.76,0.79,1.35,1.72,1.77,2.77
	c0.42,1.05,0.63,2.17,0.63,3.36c0,1.22-0.21,2.35-0.63,3.41c-0.42,1.06-0.99,1.99-1.7,2.79c-0.71,0.81-1.55,1.43-2.53,1.89
	c-0.98,0.45-2.01,0.68-3.1,0.68c-1.99,0-3.61-0.65-4.86-1.96v9.01H436.57z M440.87,583.46c0,0.66,0.11,1.29,0.34,1.87
	c0.23,0.59,0.53,1.09,0.92,1.52c0.39,0.43,0.84,0.78,1.36,1.02c0.52,0.25,1.07,0.37,1.66,0.37c0.58,0,1.13-0.12,1.65-0.37
	c0.52-0.25,0.98-0.58,1.36-1c0.39-0.42,0.69-0.92,0.92-1.51c0.23-0.59,0.34-1.22,0.34-1.91c0-0.66-0.12-1.28-0.34-1.86
	c-0.22-0.57-0.53-1.07-0.92-1.5c-0.39-0.42-0.84-0.75-1.36-0.99c-0.52-0.24-1.07-0.35-1.65-0.35c-0.58,0-1.13,0.12-1.66,0.37
	c-0.52,0.25-0.98,0.58-1.36,1c-0.38,0.42-0.69,0.92-0.92,1.49C440.99,582.21,440.87,582.82,440.87,583.46"/>
<path class="st0" d="M456.71,573.39v-2.4c0-0.6,0.21-1.11,0.63-1.52c0.42-0.41,0.93-0.62,1.53-0.62c0.58,0,1.08,0.2,1.5,0.62
	c0.42,0.41,0.63,0.91,0.63,1.52v2.4H456.71z M456.75,575.2h4.27v16.68h-4.27V575.2z"/>
<path class="st2" d="M464.84,591.87v-3.04c0-1.17,0.18-2.19,0.55-3.07c0.36-0.88,0.89-1.62,1.59-2.22c-0.7-0.6-1.22-1.35-1.59-2.24
	c-0.36-0.89-0.55-1.92-0.55-3.08v-3.03h4.27v3.26c0,0.96,0.26,1.73,0.79,2.32c0.53,0.59,1.2,0.88,2.02,0.88
	c0.84,0,1.53-0.29,2.06-0.88c0.53-0.59,0.79-1.36,0.79-2.32v-3.26h4.27v3.03c0,1.15-0.2,2.17-0.61,3.05
	c-0.41,0.88-0.97,1.64-1.69,2.27c0.71,0.62,1.28,1.38,1.69,2.27c0.41,0.89,0.61,1.9,0.61,3.01v3.04h-4.27v-3.27
	c0-0.95-0.27-1.72-0.79-2.3c-0.53-0.59-1.21-0.88-2.06-0.88c-0.82,0-1.5,0.29-2.02,0.88c-0.53,0.58-0.79,1.35-0.79,2.3v3.27H464.84z
	"/>
<path class="st0" d="M481.79,583.57c0-1.21,0.22-2.35,0.66-3.43c0.44-1.07,1.05-2,1.83-2.78c0.78-0.79,1.68-1.41,2.72-1.88
	c1.03-0.47,2.14-0.69,3.33-0.69c0.99,0,1.94,0.15,2.85,0.46c0.9,0.31,1.72,0.77,2.45,1.36c0.73,0.6,1.34,1.33,1.85,2.19
	c0.51,0.87,0.85,1.86,1.04,2.98l-11.78,4.94c0.43,0.56,0.95,1,1.55,1.31c0.6,0.32,1.27,0.48,2.01,0.48c0.7,0,1.36-0.16,2.01-0.47
	c0.64-0.31,1.15-0.8,1.52-1.48h4.57c-0.5,1.71-1.44,3.09-2.83,4.13c-1.39,1.05-3.14,1.57-5.23,1.57c-1.19,0-2.3-0.23-3.33-0.68
	c-1.03-0.45-1.94-1.07-2.72-1.86c-0.78-0.79-1.39-1.71-1.83-2.76C482.01,585.91,481.79,584.78,481.79,583.57 M485.83,583.33
	l7.84-3.3c-0.39-0.47-0.87-0.84-1.42-1.1c-0.56-0.26-1.18-0.39-1.88-0.39c-0.62,0-1.21,0.12-1.75,0.36
	c-0.54,0.24-1.02,0.57-1.41,0.99c-0.4,0.42-0.73,0.92-0.97,1.5C485.99,581.97,485.85,582.61,485.83,583.33"/>
<path class="st0" d="M501.23,584.89v-17.11h4.3v17.06c0,1.19,0.26,2.01,0.79,2.46c0.46,0.41,1.13,0.62,2.01,0.62
	c0.13,0,0.25,0,0.38-0.02v3.94c-0.39,0.04-0.77,0.07-1.12,0.07c-0.78,0-1.49-0.1-2.12-0.29c-0.92-0.28-1.7-0.73-2.32-1.35
	c-0.62-0.62-1.1-1.38-1.42-2.29C501.39,587.06,501.23,586.04,501.23,584.89"/>
<path class="st0" d="M510,583.57c0-1.21,0.22-2.35,0.66-3.43c0.44-1.07,1.05-2,1.83-2.78c0.78-0.79,1.69-1.41,2.72-1.88
	c1.03-0.47,2.15-0.69,3.34-0.69c0.99,0,1.94,0.15,2.85,0.46c0.91,0.31,1.72,0.77,2.45,1.36c0.73,0.6,1.34,1.33,1.85,2.19
	c0.5,0.87,0.85,1.86,1.04,2.98l-11.78,4.94c0.43,0.56,0.95,1,1.55,1.31c0.6,0.32,1.27,0.48,2.01,0.48c0.7,0,1.36-0.16,2.01-0.47
	c0.64-0.31,1.15-0.8,1.52-1.48h4.57c-0.5,1.71-1.44,3.09-2.83,4.13c-1.39,1.05-3.14,1.57-5.23,1.57c-1.19,0-2.3-0.23-3.34-0.68
	c-1.03-0.45-1.94-1.07-2.72-1.86c-0.78-0.79-1.39-1.71-1.83-2.76C510.22,585.91,510,584.78,510,583.57 M514.05,583.33l7.84-3.3
	c-0.39-0.47-0.87-0.84-1.42-1.1c-0.56-0.26-1.19-0.39-1.88-0.39c-0.62,0-1.21,0.12-1.75,0.36c-0.54,0.24-1.02,0.57-1.41,0.99
	c-0.4,0.42-0.72,0.92-0.97,1.5C514.21,581.97,514.07,582.61,514.05,583.33"/>
<path class="st0" d="M528.09,591.87v-4.16c0.2,0.01,0.4,0.01,0.6,0.01c0.33,0,0.65-0.02,0.95-0.06c0.46-0.08,0.84-0.26,1.14-0.57
	c0.21-0.19,0.41-0.53,0.59-1.03c0.18-0.5,0.27-1.34,0.27-2.54c0-0.54,0.02-1.1,0.06-1.69c0.04-0.58,0.14-1.17,0.29-1.74
	c0.15-0.58,0.37-1.13,0.65-1.67c0.28-0.54,0.66-1.03,1.16-1.49c1.19-1.17,2.77-1.76,4.74-1.76c0.29,0,0.58,0.01,0.89,0.03v4.17
	c-0.21-0.02-0.41-0.03-0.6-0.03c-0.9,0-1.59,0.25-2.09,0.75c-0.11,0.1-0.21,0.22-0.3,0.36c-0.09,0.14-0.18,0.34-0.26,0.6
	c-0.08,0.26-0.15,0.59-0.2,0.97c-0.05,0.38-0.08,0.88-0.08,1.49c0,0.56-0.02,1.13-0.06,1.73c-0.04,0.59-0.14,1.19-0.29,1.78
	c-0.15,0.59-0.37,1.16-0.65,1.71c-0.28,0.55-0.66,1.06-1.13,1.51c-0.7,0.67-1.52,1.12-2.47,1.38c-0.71,0.18-1.48,0.27-2.31,0.27
	C528.69,591.9,528.39,591.9,528.09,591.87"/>
<g>
	<g>
		<path class="st0" d="M425.33,815.98c-13.65-3.34-30.29-1.61-45.53,6.56c-7.75,4.15-14.29,9.55-19.49,15.59
			c-5.2-6.04-11.74-11.44-19.49-15.59c-15.24-8.16-31.89-9.9-45.53-6.56l0,0c4.78,13.21,15.66,25.72,30.9,33.88
			c7.44,3.98,15.17,6.5,22.73,7.65c-2.56,7.24-3.99,15.31-3.99,23.8c0,17.22,5.95,32.65,15.28,43.1h0
			c9.32-10.45,15.72-25.88,15.72-43.1c0-8.5-1.53-16.56-4.2-23.81c7.55-1.15,15.28-3.67,22.71-7.65
			C409.67,841.7,420.55,829.19,425.33,815.98L425.33,815.98z"/>
		<path d="M360.21,926.45v-2.03l0,0l0,0V926.45c-0.58,0-1.13-0.25-1.51-0.68l0,0C349,914.89,342.91,899,342.9,881.32l0,0
			c0-17.75,6.03-33.7,15.79-44.59l0,0c0.38-0.43,0.94-0.67,1.51-0.67l0,0h0c0.57,0,1.13,0.25,1.51,0.67l0,0
			c9.74,10.85,16.23,26.8,16.24,44.59l0,0c-0.01,17.72-6.57,33.61-16.23,44.45l0,0C361.33,926.2,360.79,926.45,360.21,926.45
			L360.21,926.45L360.21,926.45L360.21,926.45z M360.21,924.42l1.51-1.35L360.21,924.42L360.21,924.42z M346.96,881.32
			c0,15.79,5.16,30,13.25,39.98l0,0c8.15-10,13.69-24.22,13.69-39.98l0,0c0.01-15.84-5.49-30.12-13.69-40.12l0,0
			C352.07,851.17,346.95,865.44,346.96,881.32L346.96,881.32z"/>
		<path d="M325.23,851.65c-15.64-8.39-26.86-21.23-31.85-34.98l0,0c-0.22-0.61-0.14-1.28,0.22-1.81l0,0l0,0
			c0.28-0.42,0.71-0.72,1.21-0.85l0,0c4.48-1.09,9.25-1.66,14.17-1.66l0,0c10.67,0,22.07,2.65,32.8,8.4l0,0
			c15.62,8.37,26.52,21.66,31.53,35.3l0,0c0.15,0.43,0.16,0.9,0.02,1.34l0,0v0c-0.22,0.66-0.77,1.17-1.45,1.33l0,0
			c-4.27,1.03-8.8,1.55-13.46,1.55l0,0C347.63,860.27,336.12,857.48,325.23,851.65L325.23,851.65z M327.14,848.07
			c10.31,5.52,21.19,8.14,31.27,8.14l0,0c3.53,0,6.96-0.32,10.23-0.95l0,0c-4.97-11.91-14.89-23.51-28.78-30.94l0,0
			c-10.13-5.43-20.89-7.92-30.89-7.92l0,0c-3.78,0-7.46,0.36-10.94,1.05l0,0C302.99,829.34,313.15,840.58,327.14,848.07
			L327.14,848.07z"/>
		<path d="M348.75,858.72l0.47-1.97h0h0L348.75,858.72c-0.68-0.17-1.23-0.67-1.45-1.33l0,0l0,0c-0.14-0.44-0.14-0.91,0.02-1.34l0,0
			c5-13.64,15.9-26.92,31.52-35.3l0,0c10.73-5.74,22.13-8.4,32.8-8.4l0,0c4.92,0,9.69,0.56,14.17,1.66l0,0
			c0.5,0.12,0.92,0.42,1.21,0.85l0,0v0c0.36,0.54,0.44,1.21,0.22,1.81l0,0c-4.98,13.75-16.2,26.59-31.85,34.98l0,0
			c-10.89,5.83-22.41,8.62-33.19,8.62l0,0C357.54,860.27,353.02,859.75,348.75,858.72L348.75,858.72z M362.2,856.21
			c10.08,0,20.96-2.62,31.27-8.14l0,0c13.99-7.49,24.16-18.74,29.11-30.62l0,0c-3.49-0.69-7.16-1.05-10.94-1.05l0,0
			c-10,0-20.76,2.49-30.89,7.92l0,0c-13.89,7.43-23.81,19.03-28.78,30.94l0,0C355.25,855.89,358.68,856.21,362.2,856.21
			L362.2,856.21z"/>
		<g>
			<path d="M360.31,858.21c-3.84-0.12-7.56-0.61-11.09-1.46l0,0c2.35-6.42,6.09-12.79,11.06-18.58c-0.02-0.03-0.05-0.05-0.07-0.08h0
				c-4.77,5.32-8.64,11.94-11.29,19.43C352.78,858.1,356.6,858.33,360.31,858.21z"/>
			<path d="M371.4,856.75L371.4,856.75c-3.53,0.85-7.25,1.34-11.09,1.46c3.71,0.12,7.54-0.11,11.41-0.7
				c-0.41-1.12-0.86-2.22-1.33-3.3C370.75,855.05,371.09,855.9,371.4,856.75z"/>
			<path d="M362.83,841.24c1.99,2.63,3.75,5.35,5.24,8.12C366.5,846.45,364.75,843.73,362.83,841.24z"/>
			<path d="M362.83,841.24c-0.8-1.05-1.64-2.09-2.52-3.11c-0.01,0.01-0.02,0.03-0.03,0.04
				C361.16,839.14,362.01,840.17,362.83,841.24z"/>
			<path d="M349.22,856.75L349.22,856.75c3.53,0.85,7.25,1.34,11.09,1.46c3.84-0.12,7.56-0.61,11.08-1.46l0,0
				c-0.31-0.85-0.65-1.69-1.01-2.54c-0.32-0.73-0.63-1.46-0.97-2.17c-0.03-0.08-0.07-0.15-0.1-0.23c-0.03-0.06-0.06-0.11-0.08-0.17
				c-0.18-0.37-0.36-0.74-0.55-1.11c-0.06-0.11-0.11-0.21-0.17-0.32c-0.15-0.29-0.3-0.57-0.45-0.86c-1.49-2.77-3.24-5.5-5.24-8.12
				c-0.82-1.07-1.67-2.09-2.55-3.07C355.31,843.95,351.57,850.32,349.22,856.75z"/>
			<path d="M369.42,852.03c0.34,0.71,0.66,1.44,0.97,2.17C370.08,853.48,369.76,852.75,369.42,852.03z"/>
		</g>
	</g>
	<g>
		<g>
			<path class="st2" d="M334.07,832.47c0.1,4.06-3.1,7.45-7.16,7.55c-4.07,0.1-7.44-3.1-7.55-7.16c-0.11-4.06,3.1-7.44,7.17-7.55
				C330.58,825.2,333.96,828.4,334.07,832.47"/>
			<path d="M317.41,832.92c0-0.08,0-0.17,0-0.26l0,0c0-5.03,4.01-9.17,9.06-9.3l0,0c0.08,0,0.17,0,0.26,0l0,0
				c5.03,0,9.16,4.01,9.3,9.06l0,0l-1.95,0.05l1.95-0.04c0,0.08,0,0.16,0,0.24l0,0c0,5.03-4,9.17-9.07,9.31l0,0
				c-0.08,0-0.16,0-0.24,0l0,0C321.68,841.97,317.54,837.96,317.41,832.92L317.41,832.92z M326.58,827.26
				c-2.94,0.08-5.27,2.48-5.27,5.4l0,0c0,0.04,0,0.09,0,0.14l0,0c0.08,2.94,2.48,5.27,5.4,5.27l0,0c0.05,0,0.1,0,0.14,0l0,0
				c2.94-0.07,5.26-2.48,5.26-5.4l0,0c0-0.05,0-0.09,0-0.14l0,0l0,0c-0.08-2.94-2.49-5.26-5.4-5.26l0,0
				C326.68,827.26,326.64,827.26,326.58,827.26L326.58,827.26z"/>
		</g>
		<g>
			<path class="st2" d="M401.26,832.47c0.1,4.06-3.1,7.45-7.16,7.55c-4.07,0.1-7.44-3.1-7.55-7.16c-0.11-4.06,3.1-7.44,7.17-7.55
				C397.77,825.2,401.15,828.4,401.26,832.47"/>
			<path d="M384.6,832.92c0-0.08,0-0.17,0-0.26l0,0c0-5.03,4.01-9.17,9.06-9.3l0,0c0.08,0,0.16,0,0.26,0l0,0
				c5.03,0,9.16,4.01,9.3,9.06l0,0l-1.95,0.05l1.95-0.04c0,0.08,0,0.16,0,0.24l0,0c0,5.03-4.01,9.17-9.07,9.31l0,0
				c-0.08,0-0.16,0-0.24,0l0,0C388.87,841.97,384.73,837.96,384.6,832.92L384.6,832.92z M393.76,827.26
				c-2.94,0.08-5.27,2.48-5.27,5.4l0,0c0,0.04,0,0.09,0,0.14l0,0c0.08,2.94,2.48,5.27,5.4,5.27l0,0c0.05,0,0.1,0,0.14,0l0,0
				c2.94-0.07,5.27-2.48,5.26-5.4l0,0c0-0.05,0-0.09,0-0.14l0,0l0,0c-0.08-2.94-2.49-5.26-5.4-5.26l0,0
				C393.87,827.26,393.82,827.26,393.76,827.26L393.76,827.26z"/>
		</g>
	</g>
	<g>
		<path class="st2" d="M367.67,889.77c0.1,4.06-3.1,7.45-7.16,7.55c-4.07,0.11-7.44-3.1-7.55-7.16c-0.11-4.06,3.1-7.44,7.16-7.55
			C364.18,882.5,367.56,885.7,367.67,889.77"/>
		<path d="M351,890.21c0-0.08,0-0.17,0-0.26l0,0c0-5.03,4.01-9.17,9.06-9.3l0,0c0.08,0,0.16-0.01,0.26-0.01l0,0
			c5.03,0,9.16,4.01,9.3,9.06l0,0l-1.95,0.05l1.95-0.05c0,0.08,0,0.16,0,0.24l0,0c0,5.03-4.01,9.17-9.07,9.31l0,0
			c-0.09,0-0.17,0-0.24,0l0,0C355.27,899.27,351.14,895.26,351,890.21L351,890.21z M360.17,884.56c-2.94,0.07-5.27,2.48-5.27,5.4
			l0,0c0,0.04,0,0.09,0,0.15l0,0c0.08,2.94,2.48,5.26,5.4,5.26l0,0c0.05,0,0.11,0,0.14,0l0,0c2.94-0.07,5.27-2.49,5.26-5.41l0,0
			c0-0.05,0-0.09,0-0.14l0,0l0,0c-0.08-2.94-2.49-5.26-5.4-5.26l0,0C360.28,884.56,360.23,884.56,360.17,884.56L360.17,884.56z"/>
	</g>
</g>
<g>
	<path class="st2" d="M64.9,877.43v-39.67h10.82v22.67c1.57-1.68,3.39-2.93,5.46-3.73c2.07-0.8,4.33-1.2,6.77-1.2
		c2.75,0,5.36,0.57,7.81,1.71c2.45,1.14,4.57,2.72,6.36,4.72c1.79,2.01,3.21,4.35,4.27,7.01c1.06,2.67,1.59,5.51,1.59,8.51
		c0,3.04-0.53,5.89-1.59,8.53c-1.06,2.65-2.54,4.96-4.45,6.95c-1.91,1.98-4.17,3.55-6.79,4.68c-2.62,1.14-5.51,1.71-8.66,1.71
		c-3.2,0-6.12-0.57-8.76-1.71c-2.64-1.14-4.9-2.7-6.79-4.69c-1.89-1.98-3.37-4.3-4.43-6.95C65.43,883.32,64.9,880.47,64.9,877.43
		 M75.71,877.52c0,1.61,0.29,3.14,0.86,4.58c0.57,1.44,1.34,2.69,2.31,3.75c0.97,1.06,2.11,1.9,3.42,2.52
		c1.32,0.62,2.7,0.93,4.16,0.93c1.46,0,2.85-0.3,4.16-0.89c1.32-0.6,2.46-1.42,3.42-2.48c0.97-1.06,1.74-2.31,2.31-3.75
		c0.57-1.44,0.86-2.99,0.86-4.66c0-1.74-0.29-3.34-0.86-4.8c-0.57-1.45-1.34-2.72-2.31-3.81c-0.97-1.08-2.11-1.92-3.42-2.52
		c-1.31-0.59-2.7-0.89-4.16-0.89c-1.46,0-2.85,0.31-4.16,0.93c-1.31,0.62-2.45,1.47-3.42,2.56c-0.97,1.08-1.74,2.36-2.31,3.83
		C76,874.29,75.71,875.86,75.71,877.52"/>
	<path class="st2" d="M111.22,877.42c0-3.05,0.56-5.92,1.67-8.62c1.11-2.69,2.65-5.03,4.61-7.01c1.96-1.98,4.24-3.55,6.84-4.72
		c2.6-1.17,5.39-1.75,8.39-1.75c2.49,0,4.88,0.39,7.16,1.18c2.28,0.78,4.34,1.92,6.17,3.42c1.83,1.5,3.38,3.34,4.65,5.52
		c1.27,2.18,2.15,4.67,2.62,7.49l-29.63,12.42c1.09,1.4,2.39,2.5,3.9,3.3c1.51,0.79,3.19,1.19,5.05,1.19c1.75,0,3.43-0.39,5.05-1.17
		c1.62-0.78,2.89-2.02,3.82-3.72h11.49c-1.25,4.3-3.62,7.76-7.12,10.4c-3.5,2.64-7.89,3.95-13.16,3.95c-3,0-5.79-0.57-8.39-1.71
		c-2.6-1.14-4.88-2.7-6.84-4.69c-1.96-1.99-3.5-4.3-4.61-6.95C111.78,883.32,111.22,880.47,111.22,877.42 M121.41,876.83l19.73-8.3
		c-0.98-1.19-2.17-2.11-3.58-2.76c-1.41-0.65-2.98-0.97-4.73-0.97c-1.56,0-3.03,0.29-4.39,0.89c-1.36,0.59-2.55,1.42-3.56,2.48
		c-1.01,1.06-1.82,2.31-2.44,3.77C121.79,873.4,121.46,875.03,121.41,876.83"/>
	<path class="st2" d="M158.56,898.32v-7.65c0-2.93,0.46-5.51,1.37-7.71c0.91-2.21,2.25-4.07,4-5.57c-1.75-1.51-3.09-3.4-4-5.64
		c-0.92-2.25-1.37-4.83-1.37-7.76v-7.62h10.74v8.21c0,2.4,0.66,4.35,1.99,5.83c1.33,1.48,3.02,2.22,5.09,2.22
		c2.12,0,3.85-0.74,5.17-2.22c1.33-1.48,1.99-3.43,1.99-5.83v-8.21h10.74v7.62c0,2.9-0.51,5.46-1.54,7.68
		c-1.03,2.22-2.44,4.13-4.24,5.72c1.8,1.56,3.21,3.46,4.24,5.71c1.03,2.25,1.54,4.77,1.54,7.57v7.65h-10.74v-8.23
		c0-2.39-0.66-4.32-1.99-5.79c-1.32-1.47-3.05-2.21-5.17-2.21c-2.07,0-3.77,0.74-5.09,2.21c-1.33,1.47-1.99,3.4-1.99,5.79v8.23
		H158.56z"/>
	<path class="st2" d="M203.1,880.64v-35.01h10.74v10.74h7.56v9.46h-7.56v14.81c0,2.94,0.66,4.99,1.99,6.15
		c1.17,1.06,2.88,1.59,5.13,1.59c0.32,0,0.64-0.01,0.95-0.04v9.9c-0.98,0.11-1.92,0.16-2.82,0.16c-1.96,0-3.74-0.24-5.33-0.72
		c-2.34-0.72-4.29-1.86-5.87-3.45c-1.58-1.58-2.77-3.52-3.58-5.81C203.5,886.13,203.1,883.53,203.1,880.64"/>
	<path class="st2" d="M228.63,880.74v-43.03h10.81v42.92c0,2.99,0.66,5.05,1.99,6.19c1.17,1.03,2.85,1.55,5.05,1.55
		c0.32,0,0.64-0.01,0.95-0.04v9.9c-0.98,0.11-1.92,0.16-2.82,0.16c-1.96,0-3.74-0.24-5.33-0.72c-2.33-0.72-4.27-1.85-5.85-3.4
		c-1.57-1.55-2.77-3.47-3.58-5.76C229.04,886.22,228.63,883.63,228.63,880.74"/>
	<path class="st2" d="M250.7,877.32c0-3.04,0.53-5.9,1.59-8.58c1.06-2.68,2.54-5.01,4.45-6.97c1.91-1.97,4.17-3.53,6.79-4.7
		c2.62-1.16,5.54-1.74,8.74-1.74c3.15,0,6.05,0.58,8.68,1.75c2.64,1.16,4.9,2.74,6.8,4.71c1.89,1.98,3.37,4.31,4.43,7
		c1.06,2.69,1.59,5.56,1.59,8.61v20.92h-10.18v-4.45c-1.56,1.76-3.44,3.1-5.64,4.01c-2.2,0.91-4.58,1.36-7.15,1.36
		c-2.75,0-5.35-0.57-7.79-1.71c-2.43-1.14-4.57-2.71-6.4-4.71c-1.83-2-3.27-4.31-4.33-6.95C251.23,883.23,250.7,880.38,250.7,877.32
		 M261.51,877.4c0,1.67,0.29,3.23,0.86,4.67c0.57,1.44,1.35,2.7,2.33,3.76c0.98,1.06,2.12,1.89,3.43,2.49
		c1.3,0.6,2.68,0.89,4.14,0.89c1.46,0,2.85-0.31,4.17-0.93c1.32-0.62,2.46-1.46,3.42-2.53c0.97-1.06,1.74-2.31,2.31-3.76
		c0.57-1.45,0.86-2.98,0.86-4.59c0-1.67-0.29-3.24-0.86-4.71c-0.57-1.47-1.34-2.75-2.31-3.84c-0.97-1.09-2.11-1.94-3.42-2.56
		c-1.31-0.62-2.7-0.93-4.17-0.93c-1.46,0-2.84,0.3-4.14,0.89c-1.3,0.59-2.44,1.44-3.43,2.53c-0.98,1.08-1.76,2.36-2.33,3.82
		C261.8,874.05,261.51,875.65,261.51,877.4"/>
	<path class="st2" d="M298.75,898.32v-24.26c0-2.65,0.44-5.12,1.33-7.42c0.89-2.29,2.16-4.28,3.82-5.97c1.66-1.68,3.64-3,5.94-3.94
		c2.31-0.94,4.91-1.41,7.8-1.41c2.94,0,5.55,0.46,7.84,1.37c2.29,0.92,4.23,2.2,5.83,3.86c1.6,1.66,2.82,3.63,3.67,5.9
		c0.84,2.28,1.27,4.81,1.27,7.6v24.26h-10.74v-24.5c0-0.61-0.08-1.37-0.24-2.27c-0.16-0.9-0.51-1.79-1.05-2.65
		c-0.55-0.86-1.33-1.59-2.37-2.18c-1.03-0.6-2.44-0.9-4.21-0.9c-2.38,0-4.34,0.73-5.87,2.19c-1.52,1.46-2.29,3.39-2.29,5.81v24.5
		H298.75z"/>
</g>
<g>
	<path class="st2" d="M383.87,877.38c0-3.05,0.54-5.91,1.62-8.6c1.08-2.68,2.57-5.02,4.48-6.99c1.9-1.97,4.17-3.54,6.83-4.71
		c2.65-1.17,5.55-1.75,8.71-1.75c5.12,0,9.45,1.33,13.01,3.98c3.55,2.65,5.95,6.38,7.2,11.18h-11.49c-0.77-1.44-1.92-2.71-3.46-3.8
		c-1.54-1.1-3.29-1.65-5.25-1.65c-1.46,0-2.83,0.33-4.14,1c-1.3,0.67-2.44,1.57-3.42,2.69c-0.98,1.12-1.76,2.43-2.33,3.93
		c-0.57,1.5-0.86,3.1-0.86,4.81c0,1.63,0.28,3.19,0.86,4.67c0.57,1.48,1.34,2.79,2.33,3.91c0.98,1.13,2.12,2,3.42,2.63
		c1.3,0.63,2.68,0.94,4.14,0.94c2.01,0,3.81-0.54,5.39-1.61c1.58-1.08,2.71-2.36,3.4-3.84h11.49c-1.25,4.77-3.66,8.49-7.24,11.16
		c-3.58,2.66-7.93,4-13.04,4c-3.15,0-6.06-0.57-8.71-1.71c-2.65-1.14-4.93-2.71-6.83-4.7c-1.91-1.99-3.39-4.31-4.48-6.97
		C384.41,883.29,383.87,880.43,383.87,877.38"/>
	<path class="st2" d="M428.94,877.26c0-3.14,0.55-6.04,1.67-8.72c1.11-2.67,2.62-4.99,4.53-6.95c1.91-1.96,4.13-3.5,6.67-4.6
		c2.54-1.11,5.29-1.66,8.23-1.66c2.95,0,5.69,0.55,8.24,1.66c2.55,1.11,4.78,2.64,6.71,4.6c1.92,1.96,3.44,4.28,4.56,6.95
		c1.12,2.68,1.67,5.58,1.67,8.72c0,3.17-0.56,6.09-1.67,8.76c-1.11,2.67-2.63,4.99-4.56,6.97c-1.92,1.97-4.17,3.52-6.73,4.64
		c-2.56,1.12-5.3,1.68-8.22,1.68c-2.94,0-5.68-0.56-8.23-1.68c-2.54-1.12-4.77-2.67-6.67-4.64c-1.91-1.97-3.42-4.3-4.53-6.97
		C429.5,883.36,428.94,880.44,428.94,877.26 M439.68,877.34c0,1.8,0.27,3.43,0.82,4.88c0.54,1.46,1.28,2.71,2.19,3.77
		c0.92,1.06,2.02,1.88,3.31,2.44c1.29,0.57,2.64,0.85,4.04,0.85c1.41,0,2.74-0.28,3.98-0.85c1.25-0.57,2.35-1.38,3.31-2.44
		c0.96-1.06,1.71-2.32,2.25-3.79c0.54-1.47,0.82-3.09,0.82-4.87c0-1.8-0.27-3.46-0.82-4.98c-0.54-1.52-1.3-2.82-2.25-3.89
		c-0.95-1.07-2.06-1.91-3.31-2.52c-1.25-0.61-2.58-0.91-3.98-0.91c-1.41,0-2.76,0.3-4.04,0.91c-1.29,0.61-2.39,1.45-3.31,2.52
		c-0.92,1.07-1.65,2.37-2.19,3.89C439.95,873.88,439.68,875.54,439.68,877.34"/>
	<path class="st2" d="M475.27,898.32v-24.26c0-2.65,0.44-5.12,1.33-7.42c0.89-2.29,2.15-4.28,3.78-5.97c1.63-1.68,3.61-3,5.95-3.94
		c2.33-0.94,4.94-1.41,7.83-1.41s5.45,0.53,7.69,1.59c2.23,1.06,4.12,2.51,5.66,4.33c1.57-1.86,3.49-3.31,5.77-4.36
		c2.28-1.05,4.81-1.57,7.6-1.57c2.94,0,5.55,0.46,7.85,1.37c2.29,0.92,4.24,2.2,5.84,3.86c1.6,1.66,2.83,3.63,3.67,5.9
		c0.85,2.28,1.27,4.81,1.27,7.6v24.26h-10.74v-24.5c0-0.61-0.08-1.37-0.24-2.27c-0.16-0.9-0.51-1.79-1.06-2.65
		c-0.54-0.86-1.34-1.59-2.37-2.18c-1.04-0.6-2.45-0.9-4.23-0.9c-2.39,0-4.35,0.73-5.88,2.19c-1.53,1.46-2.29,3.39-2.29,5.81v24.5
		h-10.74v-24.5c0-0.61-0.08-1.37-0.24-2.27c-0.16-0.9-0.5-1.79-1.01-2.65c-0.52-0.86-1.29-1.59-2.33-2.18
		c-1.03-0.6-2.44-0.9-4.22-0.9c-2.44,0-4.41,0.73-5.9,2.19c-1.5,1.46-2.25,3.39-2.25,5.81v24.5H475.27z"/>
</g>
<path class="st0" d="M64.64,937.24v-17.1h4.3v17.07c0,1.19,0.26,2.01,0.79,2.46c0.46,0.41,1.13,0.62,2.01,0.62
	c0.13,0,0.25-0.01,0.38-0.02v3.94c-0.39,0.04-0.77,0.07-1.12,0.07c-0.78,0-1.49-0.1-2.12-0.29c-0.92-0.28-1.7-0.73-2.32-1.35
	c-0.63-0.62-1.1-1.38-1.43-2.29C64.8,939.42,64.64,938.39,64.64,937.24"/>
<path class="st0" d="M74.27,937.18v-9.63h4.27v9.74c0,0.24,0.03,0.54,0.1,0.89c0.06,0.35,0.2,0.7,0.42,1.04
	c0.22,0.34,0.53,0.63,0.94,0.87c0.41,0.24,0.98,0.35,1.69,0.35c0.95,0,1.72-0.29,2.32-0.88c0.6-0.59,0.9-1.35,0.9-2.27v-9.74h4.27
	v9.63c0,1.05-0.18,2.03-0.54,2.94c-0.36,0.91-0.86,1.7-1.52,2.36c-0.66,0.67-1.45,1.19-2.37,1.58c-0.93,0.38-1.95,0.57-3.06,0.57
	c-1.17,0-2.21-0.18-3.13-0.55c-0.92-0.37-1.69-0.88-2.33-1.54c-0.64-0.66-1.12-1.44-1.45-2.35
	C74.43,939.27,74.27,938.27,74.27,937.18"/>
<path class="st0" d="M91.96,935.88c0-1.21,0.21-2.34,0.63-3.41c0.42-1.07,1.01-1.99,1.77-2.77c0.76-0.78,1.66-1.41,2.7-1.87
	c1.04-0.46,2.2-0.69,3.48-0.69c1.25,0,2.4,0.23,3.45,0.7c1.05,0.46,1.95,1.09,2.7,1.87c0.75,0.79,1.34,1.71,1.76,2.78
	c0.42,1.07,0.63,2.21,0.63,3.42v7.48c0,1.38-0.2,2.63-0.6,3.74c-0.4,1.11-0.97,2.06-1.71,2.83c-0.74,0.77-1.65,1.37-2.72,1.79
	c-1.07,0.42-2.27,0.63-3.61,0.63c-1.01,0-1.97-0.14-2.88-0.42c-0.91-0.28-1.71-0.67-2.42-1.18c-0.71-0.5-1.32-1.12-1.82-1.83
	c-0.5-0.71-0.82-1.52-0.97-2.4H97c0.13,0.33,0.33,0.61,0.6,0.85c0.27,0.23,0.57,0.43,0.89,0.58c0.33,0.15,0.66,0.26,0.99,0.33
	c0.33,0.06,0.65,0.09,0.96,0.09c1.51,0,2.62-0.45,3.32-1.36c0.7-0.91,1.05-2.11,1.05-3.6v-0.74c-0.62,0.63-1.35,1.1-2.19,1.42
	c-0.83,0.32-1.73,0.48-2.68,0.48c-1.09,0-2.13-0.22-3.1-0.68c-0.97-0.46-1.82-1.08-2.54-1.87c-0.73-0.79-1.3-1.71-1.72-2.76
	C92.17,938.23,91.96,937.1,91.96,935.88 M96.26,935.91c0,0.66,0.11,1.28,0.34,1.86c0.23,0.57,0.54,1.07,0.93,1.5
	c0.39,0.42,0.85,0.75,1.36,0.99c0.52,0.24,1.06,0.36,1.65,0.36c0.58,0,1.13-0.13,1.65-0.38c0.52-0.25,0.98-0.58,1.36-1
	c0.39-0.42,0.69-0.92,0.92-1.49c0.23-0.58,0.34-1.18,0.34-1.83c0-0.66-0.11-1.29-0.34-1.87c-0.23-0.59-0.53-1.09-0.92-1.52
	c-0.38-0.43-0.84-0.77-1.36-1.02c-0.52-0.25-1.07-0.37-1.65-0.37c-0.58,0-1.13,0.12-1.65,0.35c-0.52,0.24-0.97,0.57-1.36,1
	c-0.39,0.43-0.7,0.94-0.93,1.52C96.37,934.58,96.26,935.22,96.26,935.91"/>
<path class="st0" d="M111.77,935.88c0-1.21,0.21-2.34,0.63-3.41c0.42-1.07,1.01-1.99,1.77-2.77c0.76-0.78,1.66-1.41,2.7-1.87
	c1.04-0.46,2.2-0.69,3.48-0.69c1.25,0,2.4,0.23,3.45,0.7c1.05,0.46,1.95,1.09,2.7,1.87c0.75,0.79,1.34,1.71,1.76,2.78
	c0.42,1.07,0.63,2.21,0.63,3.42v8.32h-4.05v-1.77c-0.62,0.7-1.37,1.23-2.24,1.59c-0.87,0.36-1.82,0.54-2.84,0.54
	c-1.09,0-2.13-0.22-3.09-0.68c-0.97-0.46-1.82-1.08-2.54-1.87c-0.73-0.79-1.3-1.71-1.72-2.76
	C111.98,938.23,111.77,937.1,111.77,935.88 M116.07,935.91c0,0.66,0.11,1.28,0.34,1.86c0.23,0.57,0.54,1.07,0.93,1.5
	c0.39,0.42,0.85,0.75,1.36,0.99c0.52,0.24,1.07,0.36,1.65,0.36c0.58,0,1.13-0.13,1.65-0.38c0.52-0.25,0.98-0.58,1.36-1
	c0.39-0.42,0.69-0.92,0.92-1.49c0.23-0.58,0.34-1.18,0.34-1.83c0-0.66-0.11-1.29-0.34-1.87c-0.23-0.59-0.53-1.09-0.92-1.52
	c-0.38-0.43-0.84-0.77-1.36-1.02c-0.52-0.25-1.07-0.37-1.65-0.37c-0.58,0-1.13,0.12-1.65,0.35c-0.52,0.24-0.97,0.57-1.36,1
	c-0.39,0.43-0.7,0.94-0.93,1.52C116.18,934.58,116.07,935.22,116.07,935.91"/>
<path class="st0" d="M132.52,944.23v-9.64c0-1.19,0.2-2.27,0.59-3.24c0.4-0.97,0.97-1.79,1.73-2.46c0.76-0.67,1.68-1.16,2.77-1.46
	c0.7-0.19,1.45-0.29,2.26-0.29c0.46,0,0.95,0.03,1.46,0.09v3.99c-0.37-0.07-0.72-0.1-1.06-0.1c-0.89,0-1.63,0.23-2.23,0.7
	c-0.83,0.63-1.25,1.55-1.25,2.74v9.67H132.52z"/>
<path class="st0" d="M148.67,935.93c0-1.19,0.21-2.32,0.63-3.38c0.42-1.06,0.99-1.99,1.72-2.79c0.73-0.79,1.57-1.42,2.53-1.88
	c0.96-0.45,1.99-0.68,3.08-0.68c1.99,0,3.62,0.65,4.89,1.96v-8.99h4.27v15.75c0,1.21-0.21,2.34-0.63,3.39
	c-0.42,1.05-1.01,1.98-1.76,2.76c-0.75,0.79-1.65,1.41-2.7,1.86c-1.05,0.45-2.2,0.68-3.45,0.68c-1.28,0-2.43-0.23-3.48-0.68
	c-1.04-0.45-1.94-1.07-2.7-1.86c-0.76-0.79-1.35-1.71-1.77-2.76C148.88,938.27,148.67,937.14,148.67,935.93 M152.97,935.96
	c0,0.66,0.11,1.28,0.34,1.85c0.23,0.57,0.54,1.07,0.93,1.49c0.39,0.42,0.84,0.75,1.36,0.98c0.52,0.24,1.07,0.36,1.65,0.36
	c0.58,0,1.13-0.12,1.65-0.37c0.52-0.25,0.98-0.58,1.36-1c0.39-0.42,0.69-0.92,0.92-1.49c0.23-0.57,0.34-1.18,0.34-1.82
	c0-0.66-0.11-1.28-0.34-1.87c-0.23-0.58-0.53-1.09-0.92-1.52c-0.38-0.43-0.84-0.77-1.36-1.02c-0.52-0.25-1.07-0.37-1.65-0.37
	c-0.58,0-1.13,0.12-1.65,0.36c-0.52,0.24-0.97,0.57-1.36,1c-0.39,0.43-0.7,0.93-0.93,1.51
	C153.08,934.63,152.97,935.27,152.97,935.96"/>
<path class="st0" d="M168.25,935.92c0-1.21,0.22-2.35,0.66-3.43c0.44-1.07,1.06-2,1.84-2.78c0.78-0.79,1.68-1.41,2.72-1.88
	c1.03-0.46,2.14-0.69,3.34-0.69c0.99,0,1.94,0.15,2.85,0.46c0.91,0.31,1.72,0.77,2.45,1.36c0.73,0.6,1.34,1.33,1.85,2.19
	c0.51,0.87,0.85,1.86,1.04,2.98l-11.78,4.94c0.43,0.56,0.95,1,1.55,1.31c0.6,0.32,1.27,0.47,2.01,0.47c0.69,0,1.36-0.16,2.01-0.47
	c0.64-0.31,1.15-0.8,1.52-1.48h4.57c-0.5,1.71-1.44,3.08-2.83,4.13c-1.39,1.05-3.14,1.57-5.23,1.57c-1.19,0-2.3-0.23-3.34-0.68
	c-1.03-0.45-1.94-1.07-2.72-1.86c-0.78-0.79-1.39-1.71-1.84-2.76C168.47,938.26,168.25,937.13,168.25,935.92 M172.3,935.68l7.84-3.3
	c-0.39-0.47-0.86-0.84-1.42-1.1c-0.56-0.26-1.19-0.39-1.88-0.39c-0.62,0-1.2,0.12-1.75,0.36c-0.54,0.24-1.01,0.57-1.42,0.99
	c-0.4,0.42-0.72,0.92-0.97,1.5C172.46,934.32,172.32,934.97,172.3,935.68"/>
<rect x="187.51" y="939.69" class="st0" width="4.54" height="4.54"/>
<rect x="193.75" y="939.69" class="st0" width="4.54" height="4.54"/>
<rect x="200" y="939.69" class="st0" width="4.54" height="4.54"/>
<path class="st2" d="M213.47,935.92v-15.77h4.3v9.01c0.62-0.67,1.35-1.17,2.17-1.48c0.82-0.32,1.72-0.48,2.69-0.48
	c1.09,0,2.13,0.23,3.1,0.68c0.97,0.45,1.82,1.08,2.53,1.88c0.71,0.8,1.27,1.73,1.7,2.79c0.42,1.06,0.63,2.19,0.63,3.38
	c0,1.21-0.21,2.34-0.63,3.39c-0.42,1.06-1.01,1.97-1.77,2.76c-0.76,0.79-1.66,1.41-2.7,1.86c-1.04,0.45-2.19,0.68-3.44,0.68
	c-1.27,0-2.44-0.23-3.48-0.68c-1.05-0.45-1.95-1.07-2.7-1.86c-0.75-0.79-1.34-1.71-1.76-2.76
	C213.68,938.26,213.47,937.13,213.47,935.92 M217.77,935.96c0,0.64,0.11,1.25,0.34,1.82c0.23,0.57,0.53,1.07,0.92,1.49
	c0.39,0.42,0.84,0.75,1.36,1c0.52,0.25,1.07,0.37,1.65,0.37c0.58,0,1.13-0.12,1.65-0.36c0.52-0.24,0.98-0.56,1.36-0.98
	c0.38-0.42,0.69-0.92,0.92-1.49c0.23-0.57,0.34-1.19,0.34-1.85c0-0.69-0.11-1.33-0.34-1.91c-0.23-0.58-0.53-1.08-0.92-1.51
	c-0.38-0.43-0.84-0.77-1.36-1c-0.52-0.24-1.07-0.36-1.65-0.36c-0.58,0-1.13,0.12-1.65,0.37c-0.52,0.25-0.98,0.58-1.36,1.02
	c-0.39,0.43-0.69,0.94-0.92,1.52C217.88,934.68,217.77,935.3,217.77,935.96"/>
<path class="st0" d="M233.61,925.75v-2.4c0-0.6,0.21-1.11,0.63-1.52c0.42-0.41,0.93-0.62,1.53-0.62c0.58,0,1.08,0.21,1.5,0.62
	c0.42,0.41,0.63,0.91,0.63,1.52v2.4H233.61z M233.64,927.55h4.27v16.68h-4.27V927.55z"/>
<path class="st0" d="M241.67,937.2v-13.92h4.27v4.27h3v3.76h-3v5.89c0,1.17,0.26,1.98,0.79,2.45c0.46,0.42,1.14,0.63,2.04,0.63
	c0.13,0,0.25-0.01,0.38-0.02v3.94c-0.39,0.04-0.77,0.06-1.12,0.06c-0.78,0-1.48-0.09-2.12-0.29c-0.93-0.28-1.71-0.74-2.33-1.37
	c-0.63-0.63-1.1-1.4-1.42-2.31C241.83,939.38,241.67,938.35,241.67,937.2"/>
<path class="st0" d="M250.56,944.23v-4.16c0.2,0.01,0.4,0.01,0.6,0.01c0.34,0,0.65-0.02,0.95-0.06c0.46-0.08,0.84-0.26,1.14-0.57
	c0.21-0.19,0.41-0.53,0.58-1.03c0.18-0.5,0.27-1.34,0.27-2.54c0-0.54,0.02-1.1,0.06-1.68c0.04-0.58,0.14-1.17,0.29-1.74
	c0.15-0.57,0.37-1.13,0.65-1.67c0.28-0.54,0.67-1.03,1.16-1.49c1.19-1.17,2.77-1.76,4.74-1.76c0.29,0,0.58,0.01,0.89,0.03v4.17
	c-0.21-0.02-0.41-0.03-0.6-0.03c-0.9,0-1.59,0.25-2.09,0.75c-0.11,0.1-0.21,0.22-0.3,0.36c-0.1,0.14-0.18,0.34-0.26,0.6
	c-0.08,0.26-0.15,0.59-0.2,0.97c-0.05,0.38-0.08,0.88-0.08,1.49c0,0.56-0.02,1.13-0.06,1.73c-0.04,0.59-0.14,1.19-0.29,1.78
	c-0.15,0.59-0.37,1.16-0.65,1.71c-0.28,0.55-0.66,1.06-1.13,1.51c-0.69,0.66-1.52,1.12-2.47,1.38c-0.71,0.18-1.48,0.27-2.31,0.27
	C251.16,944.26,250.86,944.25,250.56,944.23"/>
<path class="st0" d="M262.34,944.23v-4.54h4.54v5.09c0,1.46-0.39,2.59-1.16,3.38c-0.78,0.79-1.78,1.25-3.01,1.38v-2.01
	c0.66-0.15,1.17-0.46,1.5-0.94c0.34-0.48,0.51-1.07,0.51-1.78v-0.58H262.34z"/>
<polygon class="st0" points="277.04,927.55 281.51,927.55 285.66,939.99 289.83,927.55 294.24,927.55 287.95,944.23 283.35,944.23 
	"/>
<path class="st2" d="M295.22,935.92c0-1.21,0.22-2.35,0.66-3.43c0.44-1.07,1.05-2,1.83-2.78c0.78-0.79,1.69-1.41,2.72-1.88
	c1.03-0.46,2.14-0.69,3.34-0.69c0.99,0,1.94,0.15,2.84,0.46c0.91,0.31,1.72,0.77,2.45,1.36c0.73,0.6,1.34,1.33,1.85,2.19
	c0.51,0.87,0.85,1.86,1.04,2.98l-11.78,4.94c0.43,0.56,0.95,1,1.55,1.31c0.6,0.32,1.27,0.47,2.01,0.47c0.7,0,1.37-0.16,2.01-0.47
	c0.64-0.31,1.15-0.8,1.52-1.48h4.57c-0.5,1.71-1.44,3.08-2.83,4.13c-1.39,1.05-3.14,1.57-5.23,1.57c-1.19,0-2.3-0.23-3.34-0.68
	c-1.03-0.45-1.94-1.07-2.72-1.86c-0.78-0.79-1.39-1.71-1.83-2.76C295.44,938.26,295.22,937.13,295.22,935.92 M299.27,935.68
	l7.84-3.3c-0.39-0.47-0.86-0.84-1.42-1.1c-0.56-0.26-1.19-0.39-1.88-0.39c-0.62,0-1.21,0.12-1.75,0.36
	c-0.54,0.24-1.02,0.57-1.42,0.99c-0.4,0.42-0.72,0.92-0.97,1.5C299.42,934.32,299.29,934.97,299.27,935.68"/>
<path class="st0" d="M313.95,935.91c0-1.21,0.22-2.35,0.65-3.42c0.43-1.07,1.02-1.99,1.78-2.78c0.76-0.79,1.66-1.41,2.71-1.87
	c1.05-0.46,2.21-0.69,3.46-0.69c2.03,0,3.76,0.53,5.17,1.58c1.41,1.05,2.36,2.54,2.86,4.44h-4.57c-0.31-0.57-0.76-1.07-1.38-1.51
	c-0.61-0.44-1.31-0.66-2.09-0.66c-0.58,0-1.13,0.13-1.65,0.4c-0.52,0.27-0.97,0.62-1.36,1.07c-0.39,0.45-0.7,0.97-0.92,1.56
	c-0.23,0.6-0.34,1.23-0.34,1.91c0,0.65,0.11,1.27,0.34,1.86c0.22,0.59,0.53,1.11,0.92,1.56c0.39,0.45,0.84,0.79,1.36,1.04
	c0.52,0.25,1.06,0.38,1.65,0.38c0.8,0,1.51-0.22,2.14-0.64c0.63-0.43,1.08-0.93,1.35-1.52h4.57c-0.5,1.9-1.45,3.37-2.88,4.43
	c-1.42,1.06-3.15,1.59-5.19,1.59c-1.25,0-2.41-0.23-3.46-0.68c-1.05-0.45-1.96-1.08-2.71-1.86c-0.75-0.79-1.35-1.72-1.78-2.77
	C314.17,938.25,313.95,937.12,313.95,935.91"/>
<path class="st0" d="M333.19,937.2v-13.92h4.27v4.27h3v3.76h-3v5.89c0,1.17,0.26,1.98,0.79,2.45c0.46,0.42,1.14,0.63,2.04,0.63
	c0.13,0,0.25-0.01,0.38-0.02v3.94c-0.39,0.04-0.77,0.06-1.12,0.06c-0.78,0-1.49-0.09-2.12-0.29c-0.93-0.28-1.71-0.74-2.33-1.37
	c-0.63-0.63-1.1-1.4-1.42-2.31C333.35,939.38,333.19,938.35,333.19,937.2"/>
<path class="st0" d="M342.72,935.86c0-1.25,0.22-2.4,0.66-3.47c0.44-1.06,1.04-1.98,1.8-2.77c0.76-0.78,1.64-1.39,2.65-1.83
	c1.01-0.44,2.1-0.66,3.27-0.66c1.17,0,2.26,0.22,3.27,0.66c1.01,0.44,1.9,1.05,2.67,1.83c0.76,0.78,1.37,1.71,1.81,2.77
	c0.44,1.06,0.67,2.22,0.67,3.47c0,1.26-0.22,2.42-0.67,3.48c-0.44,1.06-1.05,1.98-1.81,2.77c-0.76,0.79-1.66,1.4-2.68,1.85
	c-1.02,0.45-2.11,0.67-3.27,0.67c-1.17,0-2.26-0.22-3.27-0.67c-1.01-0.45-1.89-1.06-2.65-1.85c-0.76-0.78-1.36-1.71-1.8-2.77
	C342.95,938.28,342.72,937.12,342.72,935.86 M346.99,935.89c0,0.72,0.11,1.36,0.32,1.94c0.22,0.58,0.51,1.08,0.87,1.5
	c0.36,0.42,0.8,0.75,1.31,0.97c0.51,0.23,1.05,0.34,1.61,0.34c0.56,0,1.09-0.11,1.58-0.34c0.5-0.23,0.93-0.55,1.32-0.97
	c0.38-0.42,0.68-0.92,0.89-1.5c0.22-0.59,0.33-1.23,0.33-1.94c0-0.71-0.11-1.37-0.33-1.98c-0.22-0.6-0.52-1.12-0.89-1.54
	c-0.38-0.43-0.82-0.76-1.32-1.01c-0.5-0.24-1.02-0.36-1.58-0.36c-0.56,0-1.1,0.12-1.61,0.36c-0.51,0.25-0.95,0.58-1.31,1.01
	c-0.36,0.42-0.65,0.94-0.87,1.54C347.1,934.52,346.99,935.17,346.99,935.89"/>
<path class="st0" d="M362.31,944.23v-9.64c0-1.19,0.2-2.27,0.59-3.24c0.4-0.97,0.97-1.79,1.73-2.46c0.76-0.67,1.68-1.16,2.77-1.46
	c0.69-0.19,1.45-0.29,2.26-0.29c0.46,0,0.95,0.03,1.45,0.09v3.99c-0.37-0.07-0.72-0.1-1.06-0.1c-0.88,0-1.63,0.23-2.23,0.7
	c-0.83,0.63-1.25,1.55-1.25,2.74v9.67H362.31z"/>
<path class="st0" d="M372.59,935.92c0-1.21,0.22-2.35,0.66-3.43c0.44-1.07,1.05-2,1.83-2.78c0.78-0.79,1.69-1.41,2.72-1.88
	c1.03-0.46,2.14-0.69,3.33-0.69c0.99,0,1.94,0.15,2.85,0.46c0.9,0.31,1.72,0.77,2.45,1.36c0.73,0.6,1.34,1.33,1.85,2.19
	c0.5,0.87,0.85,1.86,1.04,2.98l-11.78,4.94c0.43,0.56,0.95,1,1.55,1.31c0.6,0.32,1.27,0.47,2.01,0.47c0.7,0,1.37-0.16,2.01-0.47
	c0.64-0.31,1.15-0.8,1.52-1.48h4.57c-0.5,1.71-1.44,3.08-2.83,4.13c-1.39,1.05-3.14,1.57-5.23,1.57c-1.19,0-2.3-0.23-3.33-0.68
	c-1.03-0.45-1.94-1.07-2.72-1.86c-0.78-0.79-1.39-1.71-1.83-2.76C372.81,938.26,372.59,937.13,372.59,935.92 M376.63,935.68
	l7.84-3.3c-0.39-0.47-0.87-0.84-1.42-1.1c-0.56-0.26-1.19-0.39-1.88-0.39c-0.62,0-1.21,0.12-1.75,0.36
	c-0.54,0.24-1.01,0.57-1.42,0.99c-0.4,0.42-0.72,0.92-0.97,1.5C376.79,934.32,376.65,934.97,376.63,935.68"/>
<path class="st0" d="M390.67,944.23v-4.16c0.2,0.01,0.4,0.01,0.6,0.01c0.34,0,0.65-0.02,0.95-0.06c0.46-0.08,0.84-0.26,1.14-0.57
	c0.21-0.19,0.4-0.53,0.59-1.03c0.18-0.5,0.27-1.34,0.27-2.54c0-0.54,0.02-1.1,0.06-1.68c0.04-0.58,0.14-1.17,0.29-1.74
	c0.15-0.57,0.37-1.13,0.65-1.67c0.28-0.54,0.67-1.03,1.16-1.49c1.19-1.17,2.77-1.76,4.74-1.76c0.28,0,0.58,0.01,0.88,0.03v4.17
	c-0.21-0.02-0.41-0.03-0.6-0.03c-0.9,0-1.59,0.25-2.09,0.75c-0.11,0.1-0.2,0.22-0.3,0.36c-0.1,0.14-0.18,0.34-0.26,0.6
	c-0.08,0.26-0.15,0.59-0.2,0.97c-0.05,0.38-0.08,0.88-0.08,1.49c0,0.56-0.02,1.13-0.06,1.73c-0.04,0.59-0.14,1.19-0.29,1.78
	c-0.15,0.59-0.37,1.16-0.65,1.71c-0.28,0.55-0.66,1.06-1.13,1.51c-0.7,0.66-1.52,1.12-2.47,1.38c-0.71,0.18-1.48,0.27-2.31,0.27
	C391.27,944.26,390.97,944.25,390.67,944.23"/>
<path class="st0" d="M411.37,937.31v-9.75h4.27v9.8c0,0.24,0.03,0.55,0.1,0.92c0.06,0.37,0.2,0.72,0.42,1.08
	c0.22,0.35,0.53,0.66,0.94,0.91c0.41,0.26,0.96,0.38,1.66,0.38c0.97,0,1.75-0.31,2.34-0.93c0.59-0.62,0.88-1.4,0.88-2.36v-9.8h4.27
	v17.36c0,1.12-0.18,2.13-0.54,3.06c-0.36,0.92-0.86,1.71-1.5,2.37c-0.65,0.66-1.42,1.16-2.33,1.52c-0.91,0.35-1.91,0.53-3.03,0.53
	c-0.91,0-1.77-0.14-2.59-0.42c-0.82-0.28-1.55-0.67-2.19-1.19c-0.64-0.52-1.17-1.13-1.6-1.85c-0.43-0.72-0.72-1.51-0.87-2.37h4.44
	c0.12,0.62,0.44,1.08,0.95,1.39c0.51,0.3,1.13,0.46,1.87,0.46c0.58,0,1.07-0.09,1.47-0.28c0.4-0.18,0.72-0.43,0.97-0.74
	c0.25-0.31,0.42-0.65,0.53-1.03c0.11-0.38,0.16-0.76,0.16-1.15v-1.92c-0.5,0.43-1.07,0.75-1.71,0.99c-0.65,0.23-1.35,0.35-2.09,0.35
	c-1.01,0-1.94-0.18-2.78-0.54c-0.84-0.36-1.56-0.86-2.16-1.49c-0.6-0.64-1.06-1.41-1.38-2.3
	C411.53,939.4,411.37,938.4,411.37,937.31"/>
<path class="st0" d="M436.57,951.64v-15.79c0-1.19,0.21-2.32,0.63-3.38c0.42-1.06,1.01-1.98,1.76-2.78c0.75-0.79,1.65-1.42,2.7-1.87
	c1.05-0.45,2.21-0.68,3.48-0.68c1.25,0,2.4,0.23,3.44,0.67c1.04,0.45,1.94,1.07,2.7,1.87c0.76,0.79,1.35,1.72,1.77,2.77
	c0.42,1.05,0.63,2.17,0.63,3.36c0,1.22-0.21,2.35-0.63,3.41c-0.42,1.06-0.99,1.99-1.7,2.79c-0.71,0.81-1.55,1.43-2.53,1.89
	c-0.98,0.45-2.01,0.68-3.1,0.68c-1.99,0-3.61-0.65-4.86-1.96v9.01H436.57z M440.87,935.82c0,0.66,0.11,1.29,0.34,1.88
	c0.23,0.58,0.53,1.09,0.92,1.52c0.39,0.43,0.84,0.77,1.36,1.02c0.52,0.25,1.07,0.37,1.66,0.37c0.58,0,1.13-0.12,1.65-0.37
	c0.52-0.25,0.98-0.58,1.36-1c0.39-0.42,0.69-0.93,0.92-1.51c0.23-0.58,0.34-1.22,0.34-1.91c0-0.66-0.12-1.28-0.34-1.86
	c-0.22-0.57-0.53-1.07-0.92-1.5c-0.39-0.42-0.84-0.75-1.36-0.99c-0.52-0.24-1.07-0.36-1.65-0.36c-0.58,0-1.13,0.12-1.66,0.37
	c-0.52,0.25-0.98,0.58-1.36,1c-0.38,0.42-0.69,0.92-0.92,1.49C440.99,934.57,440.87,935.17,440.87,935.82"/>
<path class="st0" d="M456.71,925.75v-2.4c0-0.6,0.21-1.11,0.63-1.52c0.42-0.41,0.93-0.62,1.53-0.62c0.58,0,1.08,0.21,1.5,0.62
	c0.42,0.41,0.63,0.91,0.63,1.52v2.4H456.71z M456.75,927.55h4.27v16.68h-4.27V927.55z"/>
<path class="st2" d="M464.84,944.23v-3.04c0-1.17,0.18-2.19,0.55-3.07c0.36-0.88,0.89-1.62,1.59-2.22c-0.7-0.6-1.22-1.35-1.59-2.24
	c-0.36-0.89-0.55-1.92-0.55-3.08v-3.03h4.27v3.26c0,0.96,0.26,1.73,0.79,2.32c0.53,0.59,1.2,0.88,2.02,0.88
	c0.84,0,1.53-0.29,2.06-0.88c0.53-0.59,0.79-1.36,0.79-2.32v-3.26h4.27v3.03c0,1.15-0.2,2.17-0.61,3.05
	c-0.41,0.88-0.97,1.64-1.69,2.28c0.71,0.62,1.28,1.38,1.69,2.27c0.41,0.89,0.61,1.9,0.61,3.01v3.04h-4.27v-3.27
	c0-0.95-0.27-1.72-0.79-2.3c-0.53-0.58-1.21-0.88-2.06-0.88c-0.82,0-1.5,0.29-2.02,0.88c-0.53,0.59-0.79,1.35-0.79,2.3v3.27H464.84z
	"/>
<path class="st0" d="M481.79,935.92c0-1.21,0.22-2.35,0.66-3.43c0.44-1.07,1.05-2,1.83-2.78c0.78-0.79,1.68-1.41,2.72-1.88
	c1.03-0.46,2.14-0.69,3.33-0.69c0.99,0,1.94,0.15,2.85,0.46c0.9,0.31,1.72,0.77,2.45,1.36c0.73,0.6,1.34,1.33,1.85,2.19
	c0.51,0.87,0.85,1.86,1.04,2.98l-11.78,4.94c0.43,0.56,0.95,1,1.55,1.31c0.6,0.32,1.27,0.47,2.01,0.47c0.7,0,1.36-0.16,2.01-0.47
	c0.64-0.31,1.15-0.8,1.52-1.48h4.57c-0.5,1.71-1.44,3.08-2.83,4.13c-1.39,1.05-3.14,1.57-5.23,1.57c-1.19,0-2.3-0.23-3.33-0.68
	c-1.03-0.45-1.94-1.07-2.72-1.86c-0.78-0.79-1.39-1.71-1.83-2.76C482.01,938.26,481.79,937.13,481.79,935.92 M485.83,935.68
	l7.84-3.3c-0.39-0.47-0.87-0.84-1.42-1.1c-0.56-0.26-1.18-0.39-1.88-0.39c-0.62,0-1.21,0.12-1.75,0.36
	c-0.54,0.24-1.02,0.57-1.41,0.99c-0.4,0.42-0.73,0.92-0.97,1.5C485.99,934.32,485.85,934.97,485.83,935.68"/>
<path class="st0" d="M501.23,937.24v-17.1h4.3v17.07c0,1.19,0.26,2.01,0.79,2.46c0.46,0.41,1.13,0.62,2.01,0.62
	c0.13,0,0.25-0.01,0.38-0.02v3.94c-0.39,0.04-0.77,0.07-1.12,0.07c-0.78,0-1.49-0.1-2.12-0.29c-0.92-0.28-1.7-0.73-2.32-1.35
	c-0.62-0.62-1.1-1.38-1.42-2.29C501.39,939.42,501.23,938.39,501.23,937.24"/>
<path class="st0" d="M510,935.92c0-1.21,0.22-2.35,0.66-3.43c0.44-1.07,1.05-2,1.83-2.78c0.78-0.79,1.69-1.41,2.72-1.88
	c1.03-0.46,2.15-0.69,3.34-0.69c0.99,0,1.94,0.15,2.85,0.46c0.91,0.31,1.72,0.77,2.45,1.36c0.73,0.6,1.34,1.33,1.85,2.19
	c0.5,0.87,0.85,1.86,1.04,2.98l-11.78,4.94c0.43,0.56,0.95,1,1.55,1.31c0.6,0.32,1.27,0.47,2.01,0.47c0.7,0,1.36-0.16,2.01-0.47
	c0.64-0.31,1.15-0.8,1.52-1.48h4.57c-0.5,1.71-1.44,3.08-2.83,4.13c-1.39,1.05-3.14,1.57-5.23,1.57c-1.19,0-2.3-0.23-3.34-0.68
	c-1.03-0.45-1.94-1.07-2.72-1.86c-0.78-0.79-1.39-1.71-1.83-2.76C510.22,938.26,510,937.13,510,935.92 M514.05,935.68l7.84-3.3
	c-0.39-0.47-0.87-0.84-1.42-1.1c-0.56-0.26-1.19-0.39-1.88-0.39c-0.62,0-1.21,0.12-1.75,0.36c-0.54,0.24-1.02,0.57-1.41,0.99
	c-0.4,0.42-0.72,0.92-0.97,1.5C514.21,934.32,514.07,934.97,514.05,935.68"/>
<path class="st0" d="M528.09,944.23v-4.16c0.2,0.01,0.4,0.01,0.6,0.01c0.33,0,0.65-0.02,0.95-0.06c0.46-0.08,0.84-0.26,1.14-0.57
	c0.21-0.19,0.41-0.53,0.59-1.03c0.18-0.5,0.27-1.34,0.27-2.54c0-0.54,0.02-1.1,0.06-1.68c0.04-0.58,0.14-1.17,0.29-1.74
	c0.15-0.57,0.37-1.13,0.65-1.67c0.28-0.54,0.66-1.03,1.16-1.49c1.19-1.17,2.77-1.76,4.74-1.76c0.29,0,0.58,0.01,0.89,0.03v4.17
	c-0.21-0.02-0.41-0.03-0.6-0.03c-0.9,0-1.59,0.25-2.09,0.75c-0.11,0.1-0.21,0.22-0.3,0.36c-0.09,0.14-0.18,0.34-0.26,0.6
	c-0.08,0.26-0.15,0.59-0.2,0.97c-0.05,0.38-0.08,0.88-0.08,1.49c0,0.56-0.02,1.13-0.06,1.73c-0.04,0.59-0.14,1.19-0.29,1.78
	c-0.15,0.59-0.37,1.16-0.65,1.71c-0.28,0.55-0.66,1.06-1.13,1.51c-0.7,0.66-1.52,1.12-2.47,1.38c-0.71,0.18-1.48,0.27-2.31,0.27
	C528.69,944.26,528.39,944.25,528.09,944.23"/>
<path class="st3" d="M546.59,473.58c-16.14-17.57-39.3-28.59-65.03-28.59c-2.24,0-4.45,0.11-6.64,0.28l0-0.01h-0.01
	c-11.61-20.64-33.71-34.59-59.08-34.59c-22.65,0-42.68,11.12-54.99,28.18c-18.6-16.25-42.92-26.11-69.55-26.11
	c-20.48,0-39.59,5.84-55.79,15.91c-10.47-6.75-22.92-10.68-36.31-10.68c-28.84,0-53.42,18.21-62.91,43.74l-0.04-0.01
	c-0.03-0.01-0.07-0.02-0.1-0.03l-0.51-0.15l0,0.01c-8.1-2.42-16.68-3.74-25.57-3.74c-1.13,0-2.24,0.04-3.34,0.09v0
	c-2.98,0.11-5.92,0.37-8.82,0.77c-46.24,2.85-82.87,41.24-82.87,88.21c0,46.94,36.6,85.31,82.81,88.2c2.92,0.4,5.88,0.66,8.88,0.77
	c3.02-0.11,5.99-0.37,8.92-0.77c9.23-0.58,18.08-2.58,26.33-5.79l0.07,0.03c0.26,0.11,0.52,0.2,0.77,0.31l0.07,0.03l0.01,0
	c2.93,1.2,5.95,2.23,9.05,3.07c6.77,2.3,14.01,3.57,21.56,3.57c4.27,0,8.45-0.41,12.5-1.18c9.88-1.53,18.8-4.96,26.76-10.62
	c19.47,21.24,47.44,34.57,78.52,34.57c29.83,0,56.77-12.29,76.1-32.05l0.02,0.01l0.01-0.01c7.09,2.52,14.73,3.91,22.69,3.91
	c18.25,0,34.8-7.23,46.98-18.96c14.15,9.62,31.41,14.93,49.8,14.93c48.76,0,88.28-39.53,88.28-88.28
	C575.15,512.86,564.14,489.71,546.59,473.58z M543.04,594.75c-15.74,15.74-37.47,25.47-61.48,25.47c-15.58,0-31.38-2.89-43.96-10
	l-0.01,0c-1.06-0.73-2.11-1.48-3.13-2.26l-0.43-0.32l-0.41,0.35c-11.67,10.13-26.87,16.27-43.53,16.27v0
	c-4.84,0-9.56-0.53-14.11-1.52c-0.08-0.02-0.17-0.03-0.25-0.05c-0.03-0.01-0.07-0.02-0.1-0.02c-1.51-0.34-3-0.72-4.47-1.16l-0.01,0
	c-1.24-0.37-2.47-0.76-3.68-1.2l-0.4-0.14l-0.3,0.3c-1.27,1.27-2.59,2.5-3.93,3.71l-0.03,0.02c-18.62,16.71-43.22,26.89-70.22,26.89
	v0c-29.09,0-55.4-11.83-74.44-30.92c6.5-5.82,12.29-13.37,17.35-22.88c-14.01,18.88-34.72,32.66-57.84,32.97l-4.3-0.02
	c-8.17-0.33-15.95-2.13-23.1-5.15l-0.02-0.01c-1.18-0.5-2.34-1.04-3.49-1.61l-0.31-0.16l-0.31,0.17c-2.09,1.17-4.24,2.25-6.43,3.25
	l-0.05,0.02c-10.11,4.59-21.23,7.33-32.96,7.76c-46.87-1.74-84.39-40.3-84.39-87.64c0-47.34,37.5-85.9,84.41-87.65
	c9.97,0.38,19.51,2.41,28.36,5.84c0.61,0.23,1.2,0.47,1.79,0.71c0.12,0.05,0.24,0.09,0.35,0.14l0.61,0.25l0.26-0.6
	c0.3-0.71,0.62-1.41,0.95-2.11h0c10.63-22.54,33.55-38.15,60.12-38.15c10.69,0,20.77,2.54,29.72,7.02
	c-11.63,8.42-21.5,19.12-28.93,31.46l0.57,0.34l0.57,0.34v0c1.26-2.09,2.61-4.11,4.01-6.11c8.11-9.6,17.88-17.76,28.9-23.98
	c1.8-1.02,3.63-1.99,5.49-2.91c14.03-6.87,29.79-10.73,46.46-10.73c27,0,51.62,10.13,70.32,26.77c0.5,0.44,0.98,0.89,1.46,1.34
	c-0.02,0.04-0.05,0.08-0.07,0.11l0.57,0.34v0l0.57,0.34c1.62-2.71,3.44-5.29,5.42-7.73h0l0,0l0,0c3.25-4,6.98-7.6,11.06-10.76
	c11.21-8.65,25.25-13.81,40.51-13.81c2.51,0,4.98,0.16,7.42,0.43c8.7,0.97,16.9,3.59,24.26,7.59c9.4,5.11,17.43,12.42,23.39,21.24
	l0.03,0.05c1.2,1.77,2.31,3.61,3.34,5.5l0.22,0.4l0.46-0.06h0v0c0.54-0.08,1.09-0.14,1.63-0.21c0.26-0.03,0.53-0.07,0.79-0.1
	l0.09-0.01c3.1-0.33,6.24-0.52,9.43-0.52c22.66,0,43.28,8.67,58.76,22.88c14.2,15.48,22.88,36.1,22.88,58.77
	C568.51,557.28,558.78,579.02,543.04,594.75z"/>
<path class="st4" d="M152.74,628.74"/>
<g>
	<g>
		<path class="st0" d="M546.96,59.64c-24.82-6.08-55.09-2.92-82.81,11.93c-14.09,7.55-25.99,17.37-35.45,28.35
			c-9.45-10.98-21.36-20.81-35.45-28.35c-27.72-14.85-57.99-18-82.81-11.93l0,0c8.7,24.03,28.48,46.77,56.2,61.62
			c13.53,7.25,27.6,11.82,41.34,13.91c-4.66,13.18-7.25,27.84-7.25,43.29c0,31.32,10.83,59.39,27.78,78.4h0
			c16.95-19.01,28.59-47.08,28.59-78.4c0-15.46-2.79-30.12-7.64-43.3c13.74-2.09,27.79-6.67,41.31-13.91
			C518.48,106.42,538.26,83.67,546.96,59.64L546.96,59.64z"/>
		<path class="st1" d="M428.5,260.56v-3.69l0,0l0,0V260.56c-1.05,0-2.05-0.45-2.75-1.23l0,0c-17.62-19.78-28.71-48.69-28.72-80.85
			l0,0c0.01-32.28,10.96-61.3,28.73-81.1l0,0c0.7-0.77,1.7-1.22,2.74-1.22l0,0h0c1.04,0,2.05,0.45,2.75,1.22l0,0
			c17.72,19.75,29.52,48.75,29.53,81.1l0,0c-0.01,32.24-11.94,61.13-29.53,80.85l0,0C430.56,260.11,429.56,260.56,428.5,260.56
			L428.5,260.56L428.5,260.56L428.5,260.56z M428.51,256.87l2.75-2.45L428.51,256.87L428.51,256.87z M405.25,178.48
			c-0.01,28.72,9.38,54.57,24.1,72.71l0,0c14.83-18.19,24.91-44.06,24.9-72.71l0,0c0.01-28.81-9.98-54.78-24.9-72.97l0,0
			C414.55,123.66,405.25,149.62,405.25,178.48L405.25,178.48z"/>
		<path class="st1" d="M364.89,124.51c-28.45-15.25-48.86-38.61-57.92-63.61l0,0c-0.4-1.1-0.25-2.33,0.4-3.3l0,0v0
			c0.52-0.77,1.29-1.32,2.19-1.54l0,0c8.14-1.99,16.81-3.02,25.77-3.02l0,0c19.4,0,40.15,4.83,59.66,15.28l0,0
			c28.41,15.23,48.24,39.39,57.33,64.2l0,0c0.29,0.79,0.3,1.64,0.04,2.43l0,0l0,0c-0.4,1.21-1.4,2.12-2.64,2.42l0,0
			c-7.77,1.87-16,2.82-24.47,2.82l0,0C405.64,140.2,384.69,135.12,364.89,124.51L364.89,124.51z M368.37,118.01
			c18.75,10.04,38.54,14.81,56.88,14.81l0,0c6.42,0,12.65-0.58,18.6-1.72l0,0c-9.04-21.66-27.08-42.76-52.34-56.28l0,0
			c-18.42-9.87-38-14.41-56.18-14.41l0,0c-6.88,0-13.56,0.65-19.9,1.9l0,0C324.44,83.93,342.92,104.39,368.37,118.01L368.37,118.01z
			"/>
		<path class="st1" d="M407.67,137.37l0.86-3.59l0,0l0,0L407.67,137.37c-1.24-0.3-2.23-1.21-2.63-2.42l0,0l0,0
			c-0.26-0.79-0.25-1.65,0.04-2.43l0,0c9.09-24.81,28.92-48.97,57.33-64.2l0,0c19.51-10.45,40.26-15.28,59.66-15.28l0,0
			c8.96,0,17.63,1.03,25.77,3.02l0,0c0.9,0.22,1.68,0.77,2.19,1.54l0,0l0,0c0.65,0.97,0.8,2.2,0.4,3.3l0,0
			c-9.07,25-29.47,48.36-57.93,63.61l0,0c-19.8,10.6-40.75,15.68-60.36,15.68l0,0C423.67,140.2,415.44,139.25,407.67,137.37
			L407.67,137.37z M432.14,132.82c18.33,0,38.12-4.77,56.88-14.81l0,0c25.45-13.62,43.93-34.08,52.94-55.69l0,0
			c-6.34-1.25-13.02-1.9-19.9-1.9l0,0c-18.18,0-37.76,4.54-56.18,14.41l0,0c-25.26,13.52-43.31,34.62-52.34,56.28l0,0
			C419.49,132.24,425.73,132.82,432.14,132.82L432.14,132.82z"/>
		<g>
			<path class="st1" d="M428.7,136.45c-6.98-0.22-13.74-1.11-20.16-2.66l0,0c4.28-11.69,11.07-23.28,20.11-33.8
				c-0.04-0.05-0.09-0.1-0.13-0.15h0c-8.68,9.67-15.71,21.71-20.53,35.34C415,136.25,421.95,136.66,428.7,136.45z"/>
			<path class="st1" d="M448.86,133.79L448.86,133.79c-6.42,1.55-13.19,2.44-20.16,2.66c6.76,0.21,13.71-0.2,20.75-1.28
				c-0.75-2.04-1.57-4.04-2.42-6.01C447.68,130.7,448.3,132.24,448.86,133.79z"/>
			<path class="st1" d="M433.27,105.58c3.63,4.78,6.81,9.73,9.53,14.77C439.96,115.05,436.76,110.11,433.27,105.58z"/>
			<path class="st1" d="M433.27,105.58c-1.45-1.92-2.98-3.8-4.58-5.65c-0.02,0.02-0.04,0.04-0.06,0.07
				C430.23,101.77,431.78,103.64,433.27,105.58z"/>
			<path class="st1" d="M408.53,133.79L408.53,133.79c6.42,1.55,13.19,2.44,20.17,2.66c6.98-0.22,13.74-1.11,20.16-2.66l0,0
				c-0.56-1.54-1.18-3.08-1.83-4.62c-0.57-1.33-1.15-2.66-1.77-3.95c-0.07-0.14-0.13-0.27-0.19-0.41c-0.05-0.1-0.1-0.21-0.15-0.31
				c-0.32-0.67-0.66-1.34-1-2.01c-0.1-0.19-0.2-0.39-0.3-0.58c-0.27-0.52-0.54-1.04-0.82-1.56c-2.72-5.04-5.9-9.99-9.53-14.77
				c-1.49-1.94-3.04-3.8-4.64-5.59C419.6,110.51,412.81,122.1,408.53,133.79z"/>
			<path class="st1" d="M445.26,125.22c0.62,1.29,1.2,2.62,1.77,3.95C446.47,127.85,445.88,126.53,445.26,125.22z"/>
		</g>
	</g>
	<g>
		<g>
			<path class="st2" d="M380.97,89.63c0.19,7.39-5.63,13.54-13.03,13.73c-7.4,0.19-13.53-5.64-13.73-13.03
				c-0.19-7.39,5.64-13.54,13.03-13.73C374.63,76.41,380.78,82.24,380.97,89.63"/>
			<path class="st1" d="M350.67,90.44c0-0.15,0-0.3,0-0.47l0,0c0-9.15,7.29-16.68,16.48-16.92l0,0c0.15,0,0.3-0.01,0.47-0.01l0,0
				c9.14,0,16.66,7.29,16.91,16.48l0,0l-3.55,0.1l3.55-0.08c0,0.15,0,0.29,0,0.43l0,0c0,9.15-7.28,16.68-16.5,16.93l0,0
				c-0.15,0-0.29,0.01-0.44,0.01l0,0C358.43,106.92,350.92,99.62,350.67,90.44L350.67,90.44z M367.34,80.16
				c-5.35,0.14-9.58,4.51-9.58,9.82l0,0c0,0.08,0,0.16,0,0.27l0,0c0.14,5.34,4.51,9.58,9.83,9.58l0,0c0.09,0,0.18,0,0.26,0l0,0
				c5.34-0.14,9.58-4.52,9.57-9.83l0,0c0-0.09,0-0.18,0-0.27l0,0l0,0c-0.15-5.34-4.53-9.56-9.82-9.56l0,0
				C367.53,80.15,367.45,80.15,367.34,80.16L367.34,80.16z"/>
		</g>
		<g>
			<path class="st2" d="M503.18,89.63c0.19,7.39-5.64,13.54-13.03,13.73c-7.4,0.19-13.53-5.64-13.73-13.03
				c-0.19-7.39,5.64-13.54,13.03-13.73C496.83,76.41,502.98,82.24,503.18,89.63"/>
			<path class="st1" d="M472.87,90.44c0-0.15-0.01-0.3-0.01-0.47l0,0c0-9.15,7.29-16.68,16.48-16.92l0,0c0.15,0,0.3-0.01,0.46-0.01
				l0,0c9.15,0,16.67,7.29,16.92,16.48l0,0l-3.55,0.1l3.55-0.08c0,0.15,0.01,0.29,0.01,0.43l0,0c0,9.15-7.29,16.68-16.5,16.93l0,0
				c-0.14,0-0.29,0.01-0.44,0.01l0,0C480.63,106.92,473.12,99.62,472.87,90.44L472.87,90.44z M489.54,80.16
				c-5.35,0.14-9.58,4.51-9.58,9.82l0,0c0,0.08,0,0.16,0.01,0.27l0,0c0.14,5.34,4.51,9.58,9.82,9.58l0,0c0.09,0,0.18,0,0.26,0l0,0
				c5.34-0.14,9.57-4.52,9.57-9.83l0,0c0-0.09,0-0.17,0-0.26l0,0l0,0c-0.14-5.34-4.52-9.57-9.82-9.57l0,0
				C489.73,80.15,489.65,80.15,489.54,80.16L489.54,80.16z"/>
		</g>
	</g>
	<g>
		<path class="st2" d="M442.07,193.85c0.19,7.39-5.64,13.54-13.03,13.73c-7.4,0.19-13.53-5.64-13.73-13.03
			c-0.2-7.39,5.64-13.54,13.03-13.73C435.73,180.63,441.88,186.46,442.07,193.85"/>
		<path class="st1" d="M411.77,194.66c0-0.15-0.01-0.3-0.01-0.47l0,0c0-9.15,7.29-16.68,16.48-16.92l0,0c0.15,0,0.3-0.01,0.47-0.01
			l0,0c9.14,0,16.66,7.29,16.91,16.48l0,0l-3.55,0.09l3.55-0.08c0,0.15,0.01,0.29,0.01,0.43l0,0c0,9.15-7.28,16.68-16.5,16.93l0,0
			c-0.15,0-0.29,0-0.44,0l0,0C419.53,211.13,412.01,203.84,411.77,194.66L411.77,194.66z M428.44,184.37
			c-5.35,0.13-9.58,4.51-9.58,9.82l0,0c0,0.07,0,0.16,0.01,0.26l0,0c0.14,5.34,4.51,9.58,9.82,9.57l0,0c0.09,0,0.18,0,0.26,0l0,0
			c5.34-0.14,9.58-4.52,9.57-9.83l0,0c0-0.09,0-0.18,0-0.27l0,0h0c-0.15-5.33-4.53-9.56-9.82-9.56l0,0
			C428.63,184.37,428.55,184.37,428.44,184.37L428.44,184.37z"/>
	</g>
</g>
<g>
	<path class="st2" d="M315.5,279.76v-19.66h5.36v11.24c0.78-0.83,1.68-1.45,2.71-1.85c1.03-0.4,2.14-0.6,3.36-0.6
		c1.37,0,2.65,0.28,3.87,0.85c1.21,0.57,2.26,1.35,3.15,2.34c0.89,0.99,1.59,2.15,2.12,3.48c0.52,1.32,0.79,2.73,0.79,4.22
		c0,1.51-0.26,2.92-0.79,4.23c-0.53,1.31-1.26,2.46-2.21,3.44c-0.95,0.98-2.07,1.76-3.37,2.32c-1.3,0.56-2.73,0.85-4.29,0.85
		c-1.59,0-3.04-0.28-4.34-0.85c-1.31-0.57-2.43-1.34-3.37-2.32c-0.94-0.98-1.67-2.13-2.2-3.45
		C315.76,282.68,315.5,281.27,315.5,279.76 M320.86,279.8c0,0.8,0.14,1.56,0.42,2.27c0.28,0.71,0.67,1.33,1.15,1.86
		c0.48,0.52,1.05,0.94,1.7,1.25c0.65,0.31,1.34,0.46,2.06,0.46c0.72,0,1.41-0.15,2.06-0.44c0.65-0.3,1.22-0.7,1.7-1.23
		c0.48-0.52,0.86-1.14,1.15-1.86c0.28-0.71,0.42-1.48,0.42-2.31c0-0.86-0.14-1.66-0.42-2.38c-0.28-0.72-0.67-1.35-1.15-1.89
		c-0.48-0.54-1.05-0.95-1.7-1.25c-0.65-0.29-1.34-0.44-2.06-0.44c-0.72,0-1.41,0.15-2.06,0.46c-0.65,0.31-1.22,0.73-1.7,1.27
		c-0.48,0.54-0.86,1.17-1.15,1.9C321,278.2,320.86,278.98,320.86,279.8"/>
	<path class="st2" d="M339.27,279.75c0-1.51,0.28-2.94,0.83-4.27c0.55-1.33,1.31-2.49,2.29-3.47c0.97-0.98,2.1-1.76,3.39-2.34
		c1.29-0.58,2.67-0.87,4.16-0.87c1.24,0,2.42,0.19,3.55,0.58c1.13,0.39,2.15,0.95,3.06,1.7c0.91,0.74,1.67,1.65,2.3,2.73
		c0.63,1.08,1.06,2.32,1.3,3.71l-14.69,6.16c0.54,0.69,1.18,1.24,1.93,1.63c0.75,0.39,1.58,0.59,2.5,0.59c0.87,0,1.7-0.19,2.5-0.58
		c0.8-0.39,1.43-1,1.89-1.84h5.7c-0.62,2.13-1.79,3.85-3.53,5.15c-1.73,1.31-3.91,1.96-6.52,1.96c-1.49,0-2.87-0.28-4.16-0.85
		c-1.29-0.57-2.42-1.34-3.39-2.32c-0.97-0.99-1.73-2.13-2.29-3.45C339.55,282.68,339.27,281.27,339.27,279.75 M344.32,279.46
		l9.78-4.11c-0.49-0.59-1.08-1.05-1.77-1.37c-0.7-0.32-1.48-0.48-2.35-0.48c-0.77,0-1.5,0.15-2.18,0.44
		c-0.68,0.29-1.26,0.7-1.76,1.23c-0.5,0.52-0.9,1.15-1.21,1.87C344.51,277.76,344.34,278.57,344.32,279.46"/>
	<path class="st2" d="M362.73,290.11v-3.79c0-1.45,0.23-2.73,0.68-3.82c0.45-1.09,1.11-2.01,1.98-2.76
		c-0.87-0.75-1.53-1.68-1.98-2.8c-0.45-1.11-0.68-2.39-0.68-3.84v-3.78h5.32v4.07c0,1.19,0.33,2.15,0.99,2.89
		c0.66,0.73,1.5,1.1,2.52,1.1c1.05,0,1.91-0.37,2.56-1.1c0.66-0.74,0.99-1.7,0.99-2.89v-4.07h5.32v3.78c0,1.44-0.26,2.7-0.77,3.81
		c-0.51,1.1-1.21,2.05-2.1,2.84c0.89,0.77,1.59,1.72,2.1,2.83c0.51,1.11,0.77,2.36,0.77,3.75v3.79h-5.32v-4.08
		c0-1.18-0.33-2.14-0.99-2.87c-0.66-0.73-1.51-1.09-2.56-1.09c-1.03,0-1.87,0.36-2.52,1.09c-0.66,0.73-0.99,1.69-0.99,2.87v4.08
		H362.73z"/>
	<path class="st2" d="M384.81,281.35v-17.35h5.32v5.32h3.75v4.69h-3.75v7.34c0,1.46,0.33,2.47,0.99,3.05
		c0.58,0.52,1.43,0.79,2.54,0.79c0.16,0,0.32-0.01,0.47-0.02v4.91c-0.49,0.05-0.95,0.08-1.4,0.08c-0.97,0-1.85-0.12-2.64-0.36
		c-1.16-0.36-2.13-0.92-2.91-1.71c-0.78-0.78-1.37-1.74-1.78-2.88C385.01,284.07,384.81,282.78,384.81,281.35"/>
	<path class="st2" d="M397.47,281.4v-21.33h5.36v21.28c0,1.48,0.33,2.5,0.99,3.07c0.58,0.51,1.41,0.77,2.51,0.77
		c0.16,0,0.31-0.01,0.47-0.02v4.91c-0.48,0.05-0.95,0.08-1.4,0.08c-0.97,0-1.85-0.12-2.64-0.36c-1.15-0.35-2.12-0.92-2.9-1.68
		c-0.78-0.77-1.37-1.72-1.78-2.86C397.67,284.12,397.47,282.83,397.47,281.4"/>
	<path class="st2" d="M408.41,279.71c0-1.51,0.26-2.92,0.79-4.25c0.52-1.33,1.26-2.48,2.21-3.46c0.95-0.98,2.07-1.75,3.37-2.33
		c1.3-0.58,2.74-0.86,4.33-0.86c1.56,0,3,0.29,4.3,0.87c1.31,0.58,2.43,1.36,3.37,2.34c0.94,0.98,1.67,2.14,2.2,3.47
		s0.79,2.76,0.79,4.27v10.37h-5.04v-2.21c-0.78,0.87-1.71,1.54-2.79,1.99c-1.09,0.45-2.27,0.67-3.54,0.67
		c-1.36,0-2.65-0.28-3.86-0.85c-1.21-0.57-2.26-1.34-3.17-2.33c-0.91-0.99-1.62-2.14-2.14-3.44
		C408.67,282.63,408.41,281.22,408.41,279.71 M413.77,279.75c0,0.83,0.14,1.6,0.43,2.32c0.28,0.72,0.67,1.34,1.15,1.86
		c0.49,0.53,1.05,0.94,1.7,1.23c0.64,0.3,1.33,0.44,2.05,0.44c0.72,0,1.41-0.15,2.06-0.46c0.65-0.31,1.22-0.73,1.7-1.25
		c0.48-0.53,0.86-1.15,1.15-1.86c0.28-0.72,0.42-1.47,0.42-2.28c0-0.83-0.14-1.61-0.42-2.34c-0.28-0.73-0.67-1.36-1.15-1.9
		c-0.48-0.54-1.04-0.96-1.7-1.27c-0.65-0.31-1.34-0.46-2.06-0.46c-0.72,0-1.41,0.15-2.05,0.44s-1.21,0.71-1.7,1.25
		c-0.49,0.54-0.87,1.17-1.15,1.89C413.91,278.08,413.77,278.88,413.77,279.75"/>
	<path class="st2" d="M433.37,290.11v-12.02c0-1.31,0.22-2.54,0.66-3.68c0.44-1.14,1.07-2.12,1.89-2.96
		c0.82-0.83,1.8-1.48,2.95-1.95c1.14-0.47,2.43-0.7,3.86-0.7c1.46,0,2.75,0.23,3.89,0.68c1.13,0.45,2.1,1.09,2.89,1.91
		c0.79,0.82,1.4,1.8,1.82,2.93c0.42,1.13,0.63,2.39,0.63,3.77v12.02h-5.32v-12.14c0-0.3-0.04-0.68-0.12-1.12
		c-0.08-0.45-0.25-0.88-0.52-1.31c-0.27-0.43-0.66-0.79-1.17-1.08c-0.51-0.3-1.21-0.44-2.09-0.44c-1.18,0-2.15,0.36-2.91,1.08
		c-0.76,0.72-1.13,1.68-1.13,2.88v12.14H433.37z"/>
	<rect x="455.15" y="284.46" class="st2" width="5.66" height="5.66"/>
	<path class="st2" d="M463.02,279.74c0-1.51,0.27-2.93,0.8-4.26c0.54-1.33,1.28-2.49,2.22-3.47c0.94-0.98,2.07-1.76,3.38-2.33
		c1.31-0.58,2.75-0.87,4.32-0.87c2.54,0,4.69,0.66,6.45,1.97c1.76,1.31,2.95,3.16,3.57,5.54h-5.7c-0.38-0.71-0.95-1.34-1.71-1.88
		c-0.76-0.54-1.63-0.82-2.6-0.82c-0.72,0-1.41,0.17-2.05,0.5c-0.65,0.33-1.21,0.77-1.7,1.33c-0.49,0.56-0.87,1.2-1.15,1.95
		c-0.28,0.74-0.42,1.54-0.42,2.38c0,0.81,0.14,1.58,0.42,2.32c0.28,0.73,0.67,1.38,1.15,1.94c0.49,0.56,1.05,0.99,1.7,1.3
		c0.64,0.31,1.33,0.47,2.05,0.47c1,0,1.89-0.27,2.67-0.8c0.78-0.53,1.34-1.17,1.69-1.9h5.7c-0.62,2.36-1.81,4.21-3.59,5.53
		c-1.78,1.32-3.93,1.98-6.47,1.98c-1.56,0-3-0.28-4.32-0.85c-1.31-0.57-2.44-1.34-3.38-2.33c-0.94-0.99-1.68-2.14-2.22-3.45
		C463.29,282.66,463.02,281.25,463.02,279.74"/>
	<path class="st2" d="M486.07,279.68c0-1.56,0.28-2.99,0.83-4.32c0.55-1.33,1.3-2.47,2.24-3.45c0.95-0.97,2.05-1.73,3.31-2.28
		c1.26-0.55,2.62-0.82,4.08-0.82c1.46,0,2.82,0.27,4.08,0.82c1.26,0.55,2.37,1.31,3.33,2.28c0.95,0.97,1.71,2.12,2.26,3.45
		c0.55,1.33,0.83,2.77,0.83,4.32c0,1.57-0.28,3.02-0.83,4.34c-0.55,1.32-1.31,2.47-2.26,3.45c-0.95,0.98-2.07,1.75-3.33,2.3
		c-1.27,0.55-2.63,0.83-4.07,0.83c-1.46,0-2.82-0.28-4.08-0.83c-1.26-0.56-2.36-1.32-3.31-2.3c-0.95-0.98-1.69-2.13-2.24-3.45
		C486.34,282.7,486.07,281.25,486.07,279.68 M491.39,279.72c0,0.89,0.13,1.7,0.4,2.42c0.27,0.72,0.63,1.34,1.09,1.87
		c0.45,0.53,1,0.93,1.64,1.21c0.64,0.28,1.31,0.42,2,0.42c0.7,0,1.36-0.14,1.97-0.42c0.62-0.28,1.17-0.68,1.64-1.21
		c0.47-0.52,0.85-1.15,1.12-1.88c0.27-0.73,0.41-1.53,0.41-2.41c0-0.89-0.14-1.71-0.41-2.47c-0.27-0.75-0.64-1.4-1.12-1.93
		c-0.47-0.53-1.02-0.95-1.64-1.25c-0.62-0.3-1.28-0.45-1.97-0.45c-0.7,0-1.37,0.15-2,0.45c-0.64,0.3-1.18,0.72-1.64,1.25
		c-0.45,0.53-0.82,1.17-1.09,1.93C491.52,278,491.39,278.82,491.39,279.72"/>
	<path class="st2" d="M509.57,290.11v-12.02c0-1.31,0.22-2.54,0.66-3.68c0.44-1.14,1.06-2.12,1.87-2.96
		c0.81-0.83,1.79-1.48,2.95-1.95c1.16-0.47,2.45-0.7,3.88-0.7c1.43,0,2.7,0.26,3.81,0.79c1.11,0.53,2.04,1.24,2.8,2.15
		c0.78-0.92,1.73-1.64,2.86-2.16c1.13-0.52,2.39-0.78,3.77-0.78c1.46,0,2.75,0.23,3.89,0.68c1.14,0.45,2.1,1.09,2.89,1.91
		c0.79,0.82,1.4,1.8,1.82,2.93c0.42,1.13,0.63,2.39,0.63,3.77v12.02h-5.32v-12.14c0-0.3-0.04-0.68-0.12-1.12
		c-0.08-0.45-0.25-0.88-0.52-1.31c-0.27-0.43-0.66-0.79-1.18-1.08c-0.51-0.3-1.21-0.44-2.09-0.44c-1.19,0-2.16,0.36-2.91,1.08
		c-0.76,0.72-1.14,1.68-1.14,2.88v12.14h-5.32v-12.14c0-0.3-0.04-0.68-0.12-1.12c-0.08-0.45-0.25-0.88-0.5-1.31
		c-0.26-0.43-0.64-0.79-1.15-1.08c-0.51-0.3-1.21-0.44-2.09-0.44c-1.21,0-2.18,0.36-2.92,1.08c-0.74,0.72-1.12,1.68-1.12,2.88v12.14
		H509.57z"/>
</g>
</svg>
