<?xml version="1.0" encoding="iso-8859-1"?>
<!-- Generator: Adobe Illustrator 19.0.0, SVG Export Plug-In . SVG Version: 6.00 Build 0)  -->
<svg xmlns="http://www.w3.org/2000/svg" xmlns:xlink="http://www.w3.org/1999/xlink" version="1.1" id="Layer_1" x="0px" y="0px" viewBox="0 0 440.899 440.899" style="enable-background:new 0 0 440.899 440.899;" xml:space="preserve" width="512" height="512">
<g>
	<g>
		<path style="fill:#FF9500;" d="M316.73,335.127c43.01,0,77.878-34.867,77.878-77.877v-62.152c0-28.842,19.65-53.088,46.292-60.1    c-11.112-22.113-33.989-37.297-60.424-37.297c-36.764,0-66.651,29.354-67.557,65.896h-0.043v93.652    c0,21.522-17.448,38.969-38.97,38.969c-13.067,0-24.624-6.438-31.694-16.307C251.918,311.867,281.603,335.127,316.73,335.127z"/>
		<path style="fill:#D8D2C4;" d="M380.476,97.701c-29.021,0-53.743,18.297-63.32,43.976c8.007,29.934,35.305,51.982,67.764,51.982    c3.304,0,6.551-0.246,9.733-0.688c0.939-27.9,20.264-51.137,46.247-57.975C429.787,112.885,406.911,97.701,380.476,97.701z"/>
		<path style="opacity:0.2;fill:#222222;" d="M322.771,271.219c-2.533-8.639-5.863-16.939-9.895-24.822v10.853    c0,21.522-17.448,38.969-38.97,38.969c-13.067,0-24.624-6.438-31.694-16.307c9.707,31.955,39.392,55.215,74.519,55.215    c10.257,0,20.041-2.002,29.009-5.605v-5.869C345.739,302.949,336.884,284.283,322.771,271.219z"/>
	</g>
	<g>
		<path style="fill:#FF9500;" d="M131.331,258.99c-11.102,0-20.103,9-20.103,20.104v75.186H96.552    c-8.458,0-15.313,6.857-15.313,15.314c0,8.457,6.856,15.314,15.313,15.314h54.882V279.094    C151.434,267.99,142.433,258.99,131.331,258.99z"/>
		<path style="opacity:0.2;fill:#222222;" d="M131.331,258.99c-11.102,0-20.103,9-20.103,20.104v75.186H96.552    c-8.458,0-15.313,6.857-15.313,15.314c0,8.457,6.856,15.314,15.313,15.314h54.882V279.094    C151.434,267.99,142.433,258.99,131.331,258.99z"/>
	</g>
	<path style="fill:#FF9500;" d="M184.919,178.164h-52.031v206.744h185.449v-73.326C318.336,237.897,258.603,178.164,184.919,178.164   z"/>
	<path style="fill:#FF9500;" d="M184.919,178.164h-52.031v206.744h185.449v-73.326C318.336,237.897,258.603,178.164,184.919,178.164   z"/>
	<path style="fill:#FF9500;" d="M184.919,178.164h-52.031v206.744h185.449v-73.326C318.336,237.897,258.603,178.164,184.919,178.164   z"/>
	<path style="opacity:0.2;fill:#222222;" d="M265.985,262.395c-33.83,0-61.255,27.426-61.255,61.258c0,11.16,3,21.615,8.215,30.627   h-12.058c-8.458,0-15.314,6.857-15.314,15.314c0,8.457,6.856,15.314,15.314,15.314h126.354v-61.256   C327.241,289.82,299.816,262.395,265.985,262.395z"/>
	<path style="opacity:0.2;fill:#222222;" d="M161.06,258.99c-11.103,0-20.103,9-20.103,20.104v75.186h-8.069v30.629h48.275V279.094   C181.162,267.99,172.162,258.99,161.06,258.99z"/>
	<g>
		<g>
			<path style="fill:#FF9500;" d="M132.394,102.213c-4.433,2.82-4.191,7,0.535,9.291l80.032,38.787     c4.727,2.293,8.158-0.109,7.625-5.334l-8.508-83.305c-0.533-5.225-4.597-7.193-9.028-4.373L132.394,102.213z"/>
			<polygon style="fill:#D8D2C4;" points="198.971,124.311 195.009,85.502 162.09,106.436    "/>
			<path style="opacity:0.2;fill:#222222;" d="M203.05,57.279l-70.656,44.934c-4.433,2.82-4.191,7,0.535,9.291l40.016,19.395     l36.081-74.449C207.39,55.656,205.265,55.867,203.05,57.279z"/>
		</g>
		<g>
			<path style="fill:#FF9500;" d="M109.819,102.213c4.433,2.82,4.191,7-0.535,9.291l-80.032,38.787     c-4.727,2.293-8.158-0.109-7.625-5.334l8.508-83.305c0.533-5.225,4.597-7.193,9.028-4.373L109.819,102.213z"/>
			<polygon style="fill:#D8D2C4;" points="43.242,124.311 47.204,85.502 80.123,106.436    "/>
			<path style="opacity:0.2;fill:#222222;" d="M33.187,56.449c0.001,0,0,0,0.002-0.002c-1.638,0.793-2.788,2.592-3.054,5.205     l-8.508,83.305c-0.533,5.225,2.898,7.627,7.625,5.334l40.016-19.393L33.187,56.449z"/>
		</g>
		<path style="fill:#FF9500;" d="M121.106,93.338C61.256,93.338,11.351,135.902,0,192.41c41.564,8.998,77.26,33.746,100.516,67.697    c0.008,0.01,0.016,0.008,0.023,0.02c4.332,6.779,11.925,11.275,20.568,11.275c8.636,0,16.224-4.49,20.558-11.26    c0.007-0.012,0.013-0.01,0.02-0.018c23.255-33.959,58.955-58.715,100.527-67.715C230.861,135.902,180.956,93.338,121.106,93.338z"/>
		<path style="fill:#D8D2C4;" d="M44.218,120.184C21.875,137.975,5.838,163.348,0,192.41c41.564,8.998,77.26,33.746,100.516,67.697    c0.008,0.01,0.016,0.008,0.023,0.02c1.284,2.01,2.859,3.811,4.658,5.361c0.098-2.48,0.162-4.969,0.162-7.473    C105.358,203.354,81.77,154.203,44.218,120.184z"/>
		<path style="fill:#D8D2C4;" d="M197.993,120.184c22.343,17.791,38.381,43.164,44.218,72.227    c-41.564,8.998-77.26,33.746-100.516,67.697c-0.007,0.01-0.015,0.008-0.023,0.02c-1.283,2.01-2.858,3.811-4.657,5.361    c-0.098-2.48-0.163-4.969-0.163-7.473C136.853,203.354,160.443,154.203,197.993,120.184z"/>
		<path style="fill:#333E48;" d="M85.471,241.281c5.457,5.893,10.492,12.18,15.044,18.826c0.008,0.01,0.016,0.008,0.023,0.02    c4.332,6.779,11.925,11.275,20.568,11.275c8.636,0,16.224-4.49,20.558-11.26c0.007-0.012,0.013-0.01,0.02-0.018    c4.556-6.652,9.595-12.945,15.057-18.844H85.471z"/>
		<path style="opacity:0.2;fill:#222222;" d="M0,192.41c41.564,8.998,77.26,33.746,100.516,67.697    c0.008,0.01,0.016,0.008,0.023,0.02c4.332,6.779,11.925,11.275,20.568,11.275V93.338C61.256,93.338,11.351,135.902,0,192.41z"/>
		<circle style="fill:#333E48;" cx="179.789" cy="173.137" r="7.463"/>
		<circle style="fill:#333E48;" cx="62.424" cy="173.137" r="7.463"/>
	</g>
	<path style="fill:#FFA21F;" d="M274.267,262.395c-33.831,0-61.255,27.426-61.255,61.258c0,11.16,3,21.615,8.215,30.627h-12.059   c-8.458,0-15.313,6.857-15.313,15.314c0,8.457,6.856,15.314,15.313,15.314h126.354v-61.256   C335.523,289.82,308.098,262.395,274.267,262.395z"/>
	<path style="fill:#FFA21F;" d="M169.341,258.99c-11.102,0-20.102,9-20.102,20.104v75.186H133.54   c-8.457,0-15.313,6.857-15.313,15.314c0,8.457,6.856,15.314,15.313,15.314h55.903V279.094   C189.444,267.99,180.444,258.99,169.341,258.99z"/>
</g>















</svg>
