<?xml version="1.0" encoding="iso-8859-1"?>
<!-- Generator: Adobe Illustrator 19.0.0, SVG Export Plug-In . SVG Version: 6.00 Build 0)  -->
<svg version="1.1" id="Layer_1" xmlns="http://www.w3.org/2000/svg" xmlns:xlink="http://www.w3.org/1999/xlink" x="0px" y="0px"
	 viewBox="0 0 512 512" style="enable-background:new 0 0 512 512;" xml:space="preserve">
<path style="fill:#FFA54B;" d="M472.001,384c0,0-16.667-74.667-64-128c-7.135-8.04,28-248,8-248c-31,0-68,86-128,136l0.52,6.842
	c-9.029-4.951-19.864-7.842-31.52-7.842c-12.572,0-24.187,3.363-33.611,9.048l0.611-8.048c-60-50-97-136-128-136
	c-20,0,15.136,239.96,8,248c-47.333,53.333-64,128-64,128s30-4.75,40,0l-8,24c0,0,88,25.75,127.415,59.595l0.861-0.438
	c4.724,4.843,13.539,8.674,23.724,12.843c7.617,3.118,23.917-9,33-9c8.947,0,20.468,10.032,28,7c9.189-3.699,19-4,25.506-11.31
	l2.079,0.904C352.001,433.75,440.001,408,440.001,408l-8-24C442.001,379.25,472.001,384,472.001,384z"/>
<path style="fill:#FFCD9B;" d="M222.001,475.999c0,15.465,15.223,28.001,34,28.001c18.778,0,34-12.536,34-28.001H222.001z"/>
<path style="fill:#464655;" d="M280.001,432c0,13.255-24,24-24,24s-24-10.745-24-24s10.745-24,24-24S280.001,418.745,280.001,432z"
	/>
<g>
	<path style="fill:#FF8C46;" d="M96.001,16c12,21.333,80,152,80,152l-40-8c0,0,16,28,16,40c0,15.5-16,24-16,24"/>
	<path style="fill:#FF8C46;" d="M416.001,16c-12,21.333-80,152-80,152l40-8c0,0-16,28-16,40c0,15.5,16,24,16,24"/>
</g>
<g>
	<path style="fill:#FFDEB7;" d="M256.001,472c38.5,21,69-16,90.5-28.157c22.632-12.798,74.5-25.843,90.5-35.843l-2-22.829l34-3.171
		c0,0-50.296-54.442-114-16C297.001,401,256.001,472,256.001,472z"/>
	<path style="fill:#FFDEB7;" d="M255.001,473c-38.5,21-69-16-90.5-28.157C141.869,432.045,90.001,419,74.001,409l2-22.829l-34-3.171
		c0,0,50.296-54.442,114-16C214.001,402,255.001,473,255.001,473z"/>
</g>
<path d="M192.001,304c-8.822,0-16,7.178-16,16s7.178,16,16,16s16-7.178,16-16S200.823,304,192.001,304z"/>
<path d="M320.001,304c-8.822,0-16,7.178-16,16s7.178,16,16,16s16-7.178,16-16S328.823,304,320.001,304z"/>
<path d="M478.44,388.743c0.028-0.039,0.053-0.079,0.081-0.118c0.15-0.211,0.289-0.428,0.416-0.649
	c0.037-0.064,0.071-0.13,0.106-0.195c0.111-0.208,0.212-0.419,0.305-0.634c0.029-0.068,0.059-0.136,0.086-0.205
	c0.096-0.243,0.18-0.489,0.251-0.738c0.011-0.039,0.025-0.076,0.036-0.115c0.078-0.289,0.139-0.582,0.184-0.877
	c0.01-0.068,0.014-0.136,0.023-0.205c0.029-0.224,0.049-0.45,0.059-0.677c0.004-0.098,0.004-0.196,0.005-0.294
	c0.001-0.211-0.007-0.422-0.022-0.633c-0.006-0.089-0.011-0.177-0.021-0.266c-0.032-0.295-0.076-0.589-0.14-0.879l0,0l0,0
	c-0.005-0.023-0.01-0.046-0.016-0.069c-0.865-3.854-17.644-76.356-64.658-130.191c-0.952-8.661,2.655-47.012,5.854-81.018
	c3.156-33.553,6.733-71.584,8.355-102.381c2.713-51.515-1.356-60.549-5.384-64.974C421.833,1.287,419.006,0,416.001,0
	c-20.689,0-38.958,24.669-64.243,58.813c-19.291,26.05-41.124,55.501-67.532,77.884C276.413,135.6,266.527,135,256.001,135
	s-20.412,0.6-28.225,1.697c-26.409-22.383-48.242-51.834-67.533-77.884C134.959,24.669,116.69,0,96.001,0
	c-3.005,0-5.832,1.287-7.959,3.625c-4.028,4.424-8.098,13.459-5.384,64.974c1.622,30.797,5.199,68.828,8.355,102.381
	c3.199,34.005,6.806,72.357,5.854,81.018c-47.014,53.835-63.792,126.337-64.658,130.191c-0.005,0.023-0.011,0.046-0.016,0.069l0,0
	l0,0c-0.064,0.291-0.108,0.585-0.141,0.88c-0.009,0.088-0.014,0.176-0.021,0.265c-0.016,0.211-0.023,0.422-0.022,0.633
	c0,0.099,0.001,0.197,0.005,0.296c0.009,0.224,0.03,0.448,0.058,0.671c0.009,0.07,0.013,0.141,0.024,0.211
	c0.045,0.293,0.105,0.584,0.183,0.872c0.013,0.045,0.029,0.09,0.042,0.135c0.07,0.242,0.15,0.479,0.243,0.714
	c0.03,0.075,0.063,0.149,0.095,0.224c0.089,0.208,0.187,0.41,0.294,0.611c0.039,0.071,0.076,0.143,0.116,0.213
	c0.123,0.213,0.256,0.419,0.399,0.622c0.034,0.048,0.063,0.097,0.098,0.144c0.182,0.246,0.378,0.485,0.591,0.712
	c0.005,0.005,0.008,0.01,0.013,0.016c0.029,0.031,0.063,0.057,0.093,0.087c0.147,0.151,0.295,0.302,0.457,0.444
	c0.033,0.029,0.068,0.053,0.101,0.081c0.067,0.058,0.138,0.11,0.207,0.166c0.172,0.138,0.349,0.267,0.529,0.388
	c0.068,0.045,0.136,0.092,0.206,0.135c0.242,0.152,0.488,0.292,0.74,0.415c0.006,0.003,0.013,0.007,0.019,0.01
	c0.274,0.132,0.553,0.245,0.837,0.345c0.054,0.019,0.108,0.034,0.163,0.051c0.229,0.075,0.462,0.139,0.696,0.192
	c0.07,0.017,0.14,0.033,0.211,0.047c0.287,0.057,0.575,0.104,0.864,0.13c0.008,0,0.016,0,0.023,0.001
	c0.227,0.019,0.454,0.029,0.682,0.029c0.048,0,0.097-0.007,0.145-0.007c0.119-0.002,0.238-0.011,0.357-0.019
	c0.192-0.012,0.382-0.03,0.573-0.055c0.06-0.008,0.12-0.008,0.18-0.017c9.381-1.486,20.78-2.309,28.313-1.893l-5.153,15.461
	c-0.688,2.061-0.506,4.313,0.501,6.239c1.008,1.925,2.755,3.357,4.841,3.968c0.86,0.252,86.23,25.48,124.084,57.68
	c2.932,2.938,6.191,5.498,9.767,7.62c4.122,2.447,8.547,4.192,13.17,5.289c3.652,14.657,19.85,25.736,39.225,25.736
	c19.376,0,35.573-11.08,39.225-25.734c4.624-1.096,9.049-2.841,13.17-5.289c3.576-2.123,6.835-4.682,9.768-7.62
	c37.821-32.172,123.224-57.428,124.084-57.68c2.085-0.61,3.833-2.043,4.84-3.969c1.007-1.925,1.189-4.178,0.501-6.238l-5.161-15.483
	c7.551-0.426,18.942,0.434,28.322,1.915c0.058,0.009,0.116,0.008,0.175,0.016c0.196,0.027,0.392,0.044,0.59,0.056
	c0.111,0.007,0.223,0.016,0.334,0.018c0.051,0.001,0.102,0.008,0.153,0.008c0.531,0,1.062-0.058,1.585-0.164
	c0.058-0.012,0.116-0.026,0.174-0.039c0.251-0.057,0.499-0.125,0.745-0.206c0.041-0.014,0.082-0.025,0.122-0.039
	c0.56-0.195,1.103-0.456,1.619-0.781c0.062-0.039,0.122-0.079,0.182-0.119c0.189-0.127,0.375-0.263,0.556-0.408
	c0.063-0.05,0.125-0.098,0.187-0.149c0.035-0.03,0.072-0.055,0.106-0.085c0.173-0.151,0.332-0.313,0.489-0.475
	c0.02-0.021,0.042-0.038,0.062-0.059c0.003-0.002,0.005-0.007,0.008-0.01C478.058,389.235,478.256,388.993,478.44,388.743z
	 M256.001,496c-9.114,0-17.23-3.598-21.278-8.733c6.987-0.791,14.161-2.887,21.278-6.286c7.118,3.399,14.291,5.495,21.278,6.286
	C273.231,492.402,265.114,496,256.001,496z M256.003,447.087c-7.417-3.971-16.002-10.576-16.002-15.087c0-8.822,7.178-16,16-16
	c8.822,0,16,7.178,16,16C272.001,436.159,264.11,442.765,256.003,447.087z M428.568,376.774c-3.651,1.734-5.435,5.92-4.157,9.756
	l5.411,16.233c-17.763,5.644-61.459,20.527-95.863,40.42c1.341-5.984,2.042-12.408,2.042-19.183c0-16.681,3.511-38.761,20.24-49.216
	c3.747-2.342,4.885-7.277,2.544-11.023c-2.342-3.747-7.276-4.887-11.024-2.544c-18.161,11.349-27.76,33.06-27.76,62.783
	c0,16.11-4.679,29.451-13.058,37.936c-0.097,0.097-0.192,0.194-0.283,0.295c-1.952,1.931-4.098,3.604-6.431,4.989
	c-10.152,6.026-22.885,5.917-36.228-0.174v-6.088c8.563-4.605,24-14.861,24-28.958c0-17.645-14.355-32-32-32s-32,14.355-32,32
	c0,14.097,15.438,24.353,24,28.958v6.088c-13.344,6.092-26.077,6.201-36.228,0.174c-2.333-1.385-4.479-3.058-6.431-4.989
	c-0.091-0.101-0.186-0.198-0.283-0.295c-8.379-8.485-13.058-21.826-13.058-37.936c0-29.723-9.599-51.434-27.76-62.784
	c-3.748-2.343-8.683-1.203-11.024,2.544c-2.341,3.746-1.203,8.682,2.544,11.023c16.729,10.456,20.24,32.536,20.24,49.217
	c0,6.775,0.701,13.199,2.042,19.183c-34.404-19.893-78.1-34.776-95.863-40.42l5.411-16.233c1.278-3.835-0.505-8.021-4.157-9.756
	c-4.674-2.22-11.92-2.902-19.271-2.872c25.466-15.955,54.442-15.479,62.407-14.031c4.349,0.793,8.511-2.093,9.302-6.44
	c0.79-4.347-2.093-8.512-6.44-9.302c-11.596-2.109-44.909-2.086-74.224,16.501c8.78-25.869,25.977-66.871,54.776-99.32
	c4.295-4.839,4.46-12.077-3.042-91.828c-3.05-32.422-6.506-69.169-8.169-99.174c-0.834-15.048-1.074-26.096-0.988-34.219
	c16.646,31.194,48.691,92.575,63.401,120.791l-23.616-4.724c-3.075-0.614-6.226,0.623-8.059,3.167
	c-1.833,2.544-2.012,5.924-0.456,8.646c6.206,10.861,14.946,29.219,14.946,36.031c0,10.395-11.675,16.892-11.753,16.936
	c-3.902,2.073-5.384,6.916-3.312,10.817c1.438,2.706,4.207,4.249,7.072,4.249c1.266,0,2.551-0.301,3.747-0.937
	c0.826-0.439,20.246-10.987,20.246-31.065c0-7.702-4.663-19.375-9.181-28.878l23.612,4.723c3.018,0.603,6.116-0.578,7.966-3.041
	c1.849-2.461,2.121-5.766,0.7-8.498c-2.495-4.793-55.448-106.532-74.895-142.654c11.257,8.974,24.937,27.446,39.182,46.682
	c20.156,27.218,43,58.068,71.494,81.811c0.981,0.817,2.101,1.352,3.263,1.628c1.598,1.001,3.549,1.452,5.554,1.118
	c7.22-1.201,17.536-1.891,28.305-1.891c10.769,0,21.085,0.69,28.305,1.892c0.445,0.074,0.887,0.109,1.324,0.109
	c1.533,0,2.991-0.448,4.235-1.228c1.161-0.277,2.279-0.811,3.258-1.627c28.494-23.743,51.338-54.593,71.494-81.811
	c14.245-19.236,27.925-37.708,39.182-46.682c-19.446,36.123-72.4,137.861-74.895,142.654c-1.421,2.731-1.149,6.036,0.7,8.498
	c1.85,2.462,4.949,3.645,7.966,3.041l23.612-4.723c-4.518,9.502-9.181,21.175-9.181,28.877c0,20.078,19.42,30.626,20.247,31.065
	c1.196,0.635,2.48,0.937,3.747,0.937c2.864,0,5.634-1.542,7.072-4.249c2.073-3.901,0.59-8.745-3.312-10.817
	c-0.118-0.063-11.754-6.536-11.754-16.936c0-6.797,8.74-25.162,14.947-36.031c1.554-2.724,1.375-6.104-0.458-8.647
	s-4.985-3.781-8.058-3.167l-23.616,4.724c14.709-28.216,46.755-89.596,63.401-120.791c0.086,8.124-0.153,19.171-0.988,34.219
	c-1.663,30.005-5.12,66.752-8.169,99.174c-7.502,79.751-7.337,86.989-3.042,91.829c28.746,32.39,45.96,73.417,54.758,99.309
	c-29.312-18.576-62.616-18.599-74.206-16.49c-4.347,0.791-7.23,4.955-6.44,9.302c0.791,4.347,4.954,7.234,9.302,6.44
	c7.963-1.447,36.94-1.923,62.406,14.032C440.488,373.872,433.242,374.554,428.568,376.774z"/>
<g>
</g>
<g>
</g>
<g>
</g>
<g>
</g>
<g>
</g>
<g>
</g>
<g>
</g>
<g>
</g>
<g>
</g>
<g>
</g>
<g>
</g>
<g>
</g>
<g>
</g>
<g>
</g>
<g>
</g>
</svg>
